<?xml version="1.0" encoding="UTF-8"?>
<!DOCTYPE svg  PUBLIC '-//W3C//DTD SVG 1.1//EN'  'http://www.w3.org/Graphics/SVG/1.1/DTD/svg11.dtd'>
<svg width="529.6px" height="136.44px" enable-background="new 0 0 529.602 136.445" version="1.1" viewBox="0 0 529.602 136.445" xml:space="preserve" xmlns="http://www.w3.org/2000/svg">
<path d="m224.58 26.458c-55.207-11.789-109.6 3.182-164.4 4.813-15.889 0.474-32.027-0.261-47.705-2.68-9.534-1.472-11.629 0.124-10.868 9.278 0.783 9.43 1.821 19.328-0.122 28.406-7.007 32.733 11.572 38.398 37.365 36.618 41.576-2.871 83.125-6.146 124.68-9.313 20.561-1.566 40.849 0.561 61.044 4.183-1e-3 -23.769 1e-3 -47.538 1e-3 -71.305z" fill="#FDFEFE"/>
<path d="m283.88 20.026c-0.363 12.279-0.729 24.559-1.092 36.837 0.305 1.463 0.605 2.924 0.909 4.385 0.021 0.783 0.046 1.565 0.068 2.351 0.428 0.734 0.854 1.471 1.28 2.206 10.152-2.09 18.77 0.532 28.976 3.551 20.83 6.158 43.702 5.409 65.731 7.506 14.574 0.6 29.649 3.801 43.586 1.104 15.521-3.002 31.26 4.415 44.809-0.799 10.275-3.955 4.328 1.373 4.549 4.004 0.654-0.029 1.313-0.063 1.969-0.092 2.697-9.676 5.393-19.352 8.088-29.025-7.691-0.307-15.385-0.612-23.076-0.92-0.326-0.169-0.654-0.338-0.979-0.507-0.539-0.331-1.076-0.663-1.615-0.994-0.139 0.146-0.279 0.294-0.42 0.438-0.32 0.652-0.646 1.306-0.963 1.957l-0.014 0.018c-10.947 16.544-27.92 13.248-43.943 13.568-17.25 0.346-28.373-17.612-47.423-14.107-13.397 2.468-27.72-0.074-41.628-0.381-0.727-0.202-1.447-0.403-2.174-0.604-12.23-6.92-14.244-21.105-22.113-31.13-1.216-1.55-2.271-3.225-3.398-4.841-6.191-0.466-5.394 3.766-5.354 7.729 0.096 8.975 0.174 17.955-0.148 26.919-0.063 1.725-1.98 3.382-3.043 5.068-0.594-1.648-1.637-3.28-1.707-4.952-0.418-9.76-0.607-19.525-0.875-29.289z" fill="#EF504E"/>
<path d="m359.62 103.21c-5.494 4.766-17.543 3.327-14.922 15.771 38.756 6.65 76.602 8.149 109.34-19.292-0.156-0.876-0.313-1.753-0.469-2.629-1.633-1.64-3.27-3.277-4.902-4.917-0.525-0.107-1.055-0.217-1.584-0.326-12.988-1.716-25.975-3.432-38.963-5.146-18.248-0.588-32.185 11.46-48.502 16.539z" fill="#FDFEFE"/>
<path d="m482.75 52.05c-2.695 9.676-5.391 19.352-8.088 29.025-3.369 0.192-6.74 0.388-10.111 0.581-9.619-0.164-19.238-0.329-28.855-0.494 1.031 1.571 2.064 3.146 3.098 4.716 0.383 0.242 0.766 0.483 1.15 0.728 7.922 0.219 15.846 0.437 23.77 0.652 1.637 0.041 3.273 0.082 4.91 0.123 0.703 4e-3 1.406 9e-3 2.109 0.012 0.633 0.011 1.266 0.021 1.896 0.03 3.883 12.974 2.572 27.346 10.553 39.215 5.211 5.285 10.854 7.49 17.506 2.445 0.344-0.672 0.688-1.343 1.031-2.016-1.01-0.013-2.018-0.024-3.025-0.036-14.457-14.782-11.387-33.342-10.135-51.053 0.643-9.063-0.145-19.979 11.068-24.86 0.693-0.083 1.385-0.166 2.078-0.249-0.684-0.886-1.363-1.77-2.045-2.652-6.289-5.002-11.369-2.34-16.104 2.539-0.264 0.432-0.536 0.864-0.806 1.294z" fill="#FAF9F6"/>
<path d="m408.13 86.674c12.988 1.717 25.975 3.433 38.963 5.146-3.469-1.28-6.938-2.563-10.408-3.845-0.914-0.091-1.83-0.18-2.746-0.27-0.527 1e-3 -1.055 2e-3 -1.584 3e-3 -1.564-0.56-3.133-1.118-4.697-1.677-2.268-0.68-4.533-1.357-6.8-2.035 2.31-1.062 4.616-2.12 6.927-3.182-16.01-1.318-32.02-2.641-48.027-3.96-22.029-2.098-44.901-1.349-65.731-7.506-10.206-3.019-18.821-5.641-28.978-3.552-4.902 2.258-9.807 4.515-14.711 6.771-0.767 1.473-1.532 2.942-2.301 4.415 2.644 1.101 5.272 3.102 7.928 3.132 8.402 0.096 16.813-0.547 25.224-0.902 4.485-0.933 8.978-1.864 13.463-2.799 0.368 0.137 0.735 0.271 1.104 0.409 8.019 1.021 16.035 2.043 24.053 3.063 0.631 0.063 1.261 0.122 1.891 0.186 2.002 0.328 4.004 0.657 6.006 0.986 1.953 0.312 3.903 0.619 5.855 0.931 6.039 0.354 12.078 0.706 18.117 1.061 1.347 0.027 2.689 0.056 4.035 0.082 10.791 0.635 21.584 1.249 32.371 1.93 1.145 0.071 2.264 0.525 3.394 0.803-1.118 0.27-2.232 0.541-3.348 0.81z" fill="#FAF9F6"/>
<path d="m428.76 28.113c3.313-7.71-0.268-14.267-3.988-20.445-4.906-8.15-13.461-8.477-21.266-6.953-9.826 1.918-13.104 10.65-13.604 19.234-0.42 7.243 1.777 14.641 2.815 21.97 7.761-15.712 22.149-14.12 36.043-13.806z" fill="#464646"/>
<path d="m436.68 87.976c3.471 1.281 6.939 2.563 10.408 3.846 0.529 0.109 1.059 0.219 1.584 0.326 9.107-10.029 15.998 1.474 23.842 2.986 0.531 0.104 0.85 10.228-0.732 10.886-8.676 3.608-15.428 0.739-18.205-8.955 0.156 0.876 0.313 1.753 0.469 2.628 2.852 12.877-8.77 15.761-15.307 22.155 14.813 1.597 29.629 3.192 44.441 4.79-7.98-11.87-6.67-26.242-10.553-39.216-0.633-0.01-1.266-0.021-1.896-0.03-0.703-3e-3 -1.406-8e-3 -2.109-0.012-1.637-0.041-3.273-0.082-4.91-0.123-7.924-0.218-15.848-0.437-23.77-0.652-1.088 0.457-2.176 0.914-3.262 1.371z" fill="#E6443F"/>
<path d="m438.74 121.85c6.535-6.396 18.154-9.278 15.307-22.155-32.74 27.442-70.586 25.944-109.34 19.293 7.479 11.805 19.81 7.032 30.213 8.839 9.533 7e-3 19.067 0.015 28.604 0.021 11.737-2 23.477-3.999 35.218-5.998z" fill="#E6E5E3"/>
<path d="m314.65 76.417c-4.487 0.935-8.976 1.866-13.463 2.799 19.479 8 38.961 15.999 58.442 23.999 16.314-5.077 30.254-17.127 48.502-16.54 1.113-0.271 2.229-0.54 3.342-0.81-1.129-0.276-2.248-0.73-3.393-0.804-10.787-0.681-21.58-1.295-32.371-1.93 13.232 15.295-10.434 3.513-7.99 10.889 0.074 0.108 0.216 0.226 0.207 0.327-0.021 0.244-0.112 0.484-0.176 0.728-0.699 6e-3 -1.396 0.011-2.097 0.017-11.323-2.853-23.112-4.582-33.786-9.007-5.799-2.405-15.693 0.695-17.217-9.668z" fill="#E6443F"/>
<path d="m431.39 51.914c-0.918-2.604-1.836-5.207-2.754-7.812-2.252 0.638-4.504 1.272-6.756 1.911-0.303 2.346-0.605 4.691-0.91 7.037-0.409-2.653-0.818-5.309-1.229-7.963-8.979-5e-3 -17.962-0.01-26.942-0.016-0.088 2.426-0.176 4.851-0.264 7.274 2.76 1.809 5.52 3.614 8.278 5.423 10.657 0.46 21.315 0.921 31.979 1.382-0.466-2.409-0.935-4.823-1.402-7.236z" fill="#EBF3FA"/>
<path d="m419.74 45.089c-8.982-5e-3 -17.964-0.01-26.945-0.016-0.022-1.053-0.049-2.104-0.073-3.156 7.758-15.711 22.146-14.118 36.038-13.806-0.041 5.33-0.084 10.66-0.127 15.99-2.252 0.638-4.502 1.272-6.754 1.911-0.713-0.306-1.426-0.615-2.139-0.923zm4.674-5.37c-1.719-0.19-3.443-0.563-5.151-0.494-0.815 0.031-1.603 0.896-2.399 1.382 1.236 0.854 2.475 1.705 3.711 2.559 0.393-0.019 0.785-0.036 1.178-0.055 0.883-1.13 1.772-2.261 2.661-3.392z" fill="#E5C6AC"/>
<path d="m501.72 127.07c-0.344 0.673-0.688 1.344-1.031 2.016 2.471 2.629 4.77 7.098 7.465 7.353 2.512 0.235 7.053-3.521 7.91-6.363 3.188-10.556 5.227-21.457 7.693-32.229-4.342 1.069-8.684 2.14-13.027 3.21-0.875 9.2-1.654 18.437-8.98 25.351 7e-3 0.218 0 0.44-0.03 0.662z" fill="#C9E4F1"/>
<path d="m510.73 101.05c4.342-1.069 8.684-2.14 13.025-3.21 7.682-6.139 7.955-12.213-0.152-18.218-4.605-1.019-9.211-2.035-13.814-3.054 0 0-0.211 0.399-0.209 0.399-0.945 5.348-1.891 10.694-2.832 16.041 0.34 2.335 0.68 4.668 1.02 7 0.985 0.349 1.976 0.696 2.962 1.042z" fill="#EF504E"/>
<path d="m400.81 57.772c-2.762-1.809-5.521-3.614-8.279-5.423-2.888-1.555-4.902-7.752-9.207-1.729-1.27 3e-3 -2.543 8e-3 -3.816 0.013-18.231 0.01-36.467 0.018-54.698 0.025-0.705 0.155-1.412 0.312-2.117 0.467 13.908 0.307 28.229 2.849 41.628 0.381 19.048-3.506 30.171 14.452 47.421 14.105 16.023-0.32 32.996 2.976 43.943-13.568-16.758 12.751-35.307 13.676-54.789 8.24-0.82-0.229-1.514-0.936-2.264-1.417 0.727-0.366 1.451-0.731 2.178-1.094z" fill="#E6443F"/>
<path d="m224.58 26.458c0 23.769-2e-3 47.536-2e-3 71.305 0.899 0.729 1.799 1.461 2.697 2.19 0.527-1.238 1.053-2.477 1.58-3.706 0.012-4.063 0.025-8.138 0.037-12.21-8e-3 -14.331-0.018-28.662-0.025-42.992 0.013-1.002 0.025-2.003 0.037-3.005-0.018-0.919-0.034-1.839-0.052-2.751 0.036-2.637 0.071-5.279 0.106-7.923-0.91-2.953-2.337-3.413-4.378-0.908z" fill="#E6443F"/>
<path d="m509.79 76.573c4.604 1.018 9.209 2.034 13.814 3.053-1.941-11.938-0.938-24.682-9.52-34.802-1.433 10.582-2.865 21.166-4.294 31.749z" fill="#C9E4F1"/>
<path d="m283.88 20.026c0.268 9.765 0.457 19.529 0.873 29.286 0.072 1.672 1.113 3.304 1.707 4.952 1.063-1.688 2.979-3.346 3.043-5.068 0.322-8.964 0.244-17.944 0.149-26.919-0.04-3.963-0.84-8.192 5.353-7.729-2.406-0.752-5.76-2.839-7.004-1.954-2.081 1.48-2.817 4.855-4.121 7.432z" fill="#E6443F"/>
<path d="m228.89 84.037c-0.012 4.072-0.025 8.146-0.037 12.21 6.007-21.592 27.63-15.807 41.474-23.67 4.908-2.262 9.813-4.519 14.715-6.774-0.426-0.734-0.853-1.471-1.278-2.202-18.294 6.813-36.583 13.624-54.874 20.436z" fill="#E5C6AC"/>
<path d="m228.91 38.04c-0.012 1.002-0.024 2.003-0.037 3.005 18.275 6.733 36.551 13.469 54.829 20.202-0.305-1.461-0.607-2.922-0.91-4.385-17.962-6.275-35.922-12.548-53.882-18.822z" fill="#E5C6AC"/>
<path d="m400.81 57.772c-0.727 0.363-1.451 0.729-2.178 1.095 0.75 0.481 1.439 1.188 2.263 1.417 19.483 5.436 38.032 4.511 54.79-8.24l0.012-0.018c0.318-0.651 0.643-1.305 0.963-1.957 0.141-0.146 0.281-0.292 0.42-0.438-1.453-0.463-2.906-0.925-4.34-1.396-1.344 1.54-2.709 3.091-4.074 4.642-5.293 2.094-10.586 4.188-15.877 6.281-10.663-0.465-21.321-0.926-31.979-1.386z" fill="#EF504E"/>
<path d="m509.79 76.573c1.432-10.583 2.861-21.166 4.295-31.749-1.379-3.341-3.602-5.006-7.326-3.69 0.227 5.737 0.447 11.478 0.672 17.216 0.209 6.188 0.42 12.378 0.629 18.565 0.508 0.021 1.016 0.04 1.521 0.06l0.209-0.402z" fill="#EAF3FA"/>
<path d="m432.79 59.154c5.291-2.094 10.584-4.188 15.877-6.28-3.693-0.837-7.387-1.675-11.08-2.513 0.369 0.314 0.738 0.633 1.107 0.947-2.436 0.201-4.867 0.403-7.305 0.604 0.465 2.415 0.934 4.829 1.401 7.242z" fill="#E5C6AC"/>
<path d="m507.43 58.347c-0.223-5.738-0.447-11.479-0.672-17.216-2.365 2.361-4.729 4.724-7.096 7.084 0.682 0.886 1.361 1.77 2.045 2.653 1.909 2.495 3.815 4.987 5.723 7.479z" fill="#C9E4F1"/>
<path d="m438.69 51.308c-0.369-0.314-0.738-0.633-1.107-0.947 3.693 0.838 7.387 1.676 11.08 2.513 1.365-1.551 2.729-3.102 4.074-4.642 1.107-0.56 2.234-1.128 3.361-1.696-0.018 0.394 0.059 1.096-0.063 1.131-2.26 0.658-5.283 2.458-6.686 1.607-4.552-2.764-7.77-2.169-10.659 2.034z" fill="#464646"/>
<path d="m403.52 127.84c-9.534-8e-3 -19.068-0.016-28.604-0.021 9.538 7e-3 19.07 0.013 28.604 0.021z" fill="#EBF3FA"/>
<path d="m482.75 52.05c0.27-0.431 0.541-0.861 0.811-1.294-1.25-0.036-2.498-0.069-3.744-0.104-0.762 5e-3 -1.521 0.01-2.281 0.014-0.576-8e-3 -1.154-0.017-1.73-0.022-0.416 6e-3 -0.834 0.012-1.25 0.018-4.582 0-9.164-1e-3 -13.746-1e-3 -0.377 0.157-0.756 0.314-1.133 0.474 7.691 0.302 15.382 0.609 23.073 0.915z" fill="#E6443F"/>
<path d="m228.96 27.366c-0.035 2.644-0.07 5.286-0.106 7.923 0.035-2.647 0.071-5.286 0.106-7.923z" fill="#E5C6AC"/>
<path d="m322.69 51.125c0.705-0.155 1.412-0.312 2.117-0.467-1.431-0.048-2.858-0.094-4.291-0.141 0.726 0.202 1.448 0.405 2.174 0.608z" fill="#E8A09E"/>
<path d="m379.51 50.632c1.273-5e-3 2.549-0.01 3.818-0.013-1.277 6e-3 -2.545 9e-3 -3.818 0.013z" fill="#E8A09E"/>
<path d="m459.67 51.13c0.379-0.157 0.756-0.314 1.135-0.474-0.707-0.013-1.414-0.023-2.115-0.034 0.326 0.17 0.654 0.339 0.98 0.508z" fill="#E8A09E"/>
<path d="m477.54 50.665c0.76-4e-3 1.52-9e-3 2.281-0.014-0.762 5e-3 -1.522 0.01-2.281 0.014z" fill="#E8A09E"/>
<path d="m474.55 50.658c0.418-6e-3 0.834-0.012 1.25-0.018-0.416 7e-3 -0.832 0.013-1.25 0.018z" fill="#E8A09E"/>
<path d="m423.34 77.962c15.521-3.002 31.262 4.415 44.809-0.799 10.277-3.955 4.328 1.373 4.547 4.004-2.715 0.163-5.43 0.326-8.143 0.489-9.619-0.164-19.238-0.329-28.855-0.494-2.641-0.114-5.275-0.229-7.914-0.345-16.01-1.318-32.02-2.641-48.027-3.96 14.574 0.601 29.649 3.802 43.583 1.105zm14.432 0.914c0.162-2e-3 0.322-0.335 0.482-0.521-0.135-0.072-0.287-0.229-0.398-0.204-0.281 0.063-0.547 0.209-0.816 0.321 0.242 0.178 0.488 0.406 0.732 0.404z" fill="#E6443F"/>
<path d="m472.69 81.167c-2.715 0.163-5.43 0.326-8.143 0.489 3.371-0.193 6.742-0.389 10.111-0.581-0.656 0.031-1.312 0.062-1.968 0.092z" fill="#E8A09E"/>
<path d="m456.66 50.069c-0.32 0.652-0.645 1.306-0.963 1.957 0.318-0.652 0.64-1.305 0.963-1.957z" fill="#E6443F"/>
<path d="m453.58 97.065c2.775 9.694 9.529 12.563 18.205 8.955 1.582-0.658 1.266-10.782 0.732-10.886-7.844-1.515-14.732-13.018-23.842-2.986 1.635 1.639 3.272 3.278 4.905 4.917z" fill="#EF504E"/>
<path d="m507.43 58.347c-1.908-2.492-3.814-4.984-5.723-7.479-0.693 0.083-1.385 0.166-2.078 0.249-7.773 20.265-7.299 41.031-3.771 61.983 2.145-4.352 4.287-8.701 6.432-13.053-7.123 0.568-5.23-4.985-5.488-8.578-0.578-8.01-1.055-16.354 11.26-14.56-0.212-6.184-0.421-12.373-0.632-18.562z" fill="#E8A09E"/>
<path d="m495.86 113.1c-3.525-20.952-4.002-41.721 3.771-61.983-11.213 4.88-10.426 15.797-11.068 24.86-1.252 17.711-4.322 36.271 10.135 51.053-0.945-4.645-1.893-9.287-2.838-13.93z" fill="#E6443F"/>
<path d="m495.86 113.1c0.945 4.644 1.893 9.285 2.838 13.93 1.01 0.012 2.018 0.023 3.025 0.036 0.029-0.222 0.037-0.442 0.027-0.667 2.006-8.797 4.014-17.593 6.02-26.389-0.342-2.333-0.682-4.666-1.02-7-1.486 2.346-2.977 4.691-4.461 7.037-2.142 4.352-4.285 8.702-6.429 13.053z" fill="#E6E5E3"/>
<path d="m435.7 81.163c-2.641-0.114-5.275-0.229-7.914-0.345-2.311 1.062-4.617 2.12-6.927 3.182 2.267 0.678 4.532 1.355 6.8 2.035 3.713-0.053 7.426-0.104 11.139-0.156-1.034-1.572-2.067-3.144-3.098-4.716z" fill="#FDFEFE"/>
<path d="m438.79 85.878c-3.715 0.053-7.428 0.104-11.141 0.156 1.564 0.559 3.133 1.117 4.705 1.676 0.525-2e-3 1.053-2e-3 1.574-2e-3l2.748 0.27c1.086-0.458 2.172-0.915 3.262-1.372-0.382-0.243-0.765-0.485-1.148-0.728z" fill="#E8A09E"/>
<path d="m463.71 87.258c1.637 0.041 3.275 0.082 4.912 0.123-1.636-0.041-3.275-0.082-4.912-0.123z" fill="#EF504E"/>
<path d="m470.73 87.392c0.633 0.011 1.266 0.021 1.896 0.03-0.63-8e-3 -1.263-0.019-1.896-0.03z" fill="#EF504E"/>
<path d="m314.65 76.417c1.524 10.362 11.418 7.265 17.22 9.668 10.672 4.425 22.463 6.154 33.786 9.007l0.14-0.106c0.623-0.305 1.248-0.61 1.873-0.917l0.053-0.046c-2.441-7.376 21.225 4.407 7.99-10.889-1.347-0.026-2.688-0.055-4.035-0.082-6.039-0.354-12.078-0.707-18.118-1.061-1.951-0.311-3.902-0.619-5.854-0.931-2.002-0.329-4.005-0.658-6.007-0.986-0.629-0.063-1.259-0.123-1.89-0.185-8.018-1.021-16.034-2.043-24.053-3.063-0.37-0.137-0.737-0.274-1.105-0.409z" fill="#EF504E"/>
<path d="m315.75 76.826c8.018 1.021 16.035 2.043 24.053 3.063-8.017-1.02-16.036-2.042-24.053-3.063z" fill="#E6443F"/>
<path d="m353.55 81.991c6.039 0.354 12.078 0.707 18.117 1.061-6.039-0.354-12.078-0.708-18.117-1.061z" fill="#E6443F"/>
<path d="m341.69 80.074c2.002 0.328 4.004 0.657 6.007 0.986-2.003-0.328-4.005-0.657-6.007-0.986z" fill="#E6443F"/>
<path d="m433.94 87.708c-0.523 0-1.051 0-1.578 2e-3 0.523 0 1.051-1e-3 1.578-2e-3z" fill="#FDFEFE"/>
<path d="m365.65 95.091c0.698-6e-3 1.396-0.011 2.095-0.017l-0.113-0.1c-0.612 2e-3 -1.227 5e-3 -1.842 8e-3l-0.14 0.109z" fill="#EF504E"/>
<path d="m367.75 95.075c0.063-0.241 0.155-0.481 0.178-0.728 9e-3 -0.104-0.135-0.219-0.207-0.327 0 0-0.053 0.046-0.051 0.046-8e-3 0.304-0.021 0.604-0.033 0.909l0.113 0.1z" fill="#EF504E"/>
<path d="m421.88 46.014c-0.713-0.31-1.426-0.617-2.139-0.926 0.408 2.654 0.817 5.31 1.229 7.963 0.305-2.344 0.608-4.691 0.91-7.037z" fill="#EF504E"/>
<path d="m421.75 43.111c0.889-1.13 1.775-2.261 2.664-3.392-1.719-0.19-3.443-0.563-5.152-0.494-0.816 0.031-1.602 0.896-2.4 1.382 1.237 0.854 2.475 1.705 3.711 2.559 0.39-0.02 0.785-0.038 1.177-0.055z" fill="#E6443F"/>
<path d="m421.75 43.111c-0.393 0.019-0.787 0.035-1.178 0.055 0.391-0.019 0.786-0.038 1.178-0.055z" fill="#EF504E"/>
<path d="m507.77 100.01c-2.008 8.796-4.016 17.592-6.02 26.389 7.326-6.914 8.104-16.147 8.979-25.351-0.982-0.345-1.973-0.692-2.959-1.038z" fill="#E8A09E"/>
<path d="m502.29 100.05c1.486-2.346 2.975-4.691 4.461-7.037 0.941-5.348 1.887-10.694 2.832-16.041-0.508-0.02-1.018-0.038-1.521-0.06-12.313-1.794-11.838 6.55-11.26 14.56 0.257 3.592-1.635 9.147 5.488 8.578z" fill="#E5C6AC"/>
<path d="m437.04 78.497c0.244 0.152 0.49 0.382 0.734 0.38 0.162-2e-3 0.322-0.335 0.482-0.521-0.135-0.072-0.287-0.229-0.398-0.204-0.281 0.064-0.547 0.21-0.818 0.345z" fill="#EF504E"/>
<path d="m367.63 94.976c0.015-0.305 0.025-0.605 0.033-0.909-0.625 0.307-1.252 0.612-1.875 0.917 0.618-3e-3 1.23-6e-3 1.842-8e-3z" fill="#E6443F"/>
<circle cx="413.61" cy="32.537" r="2" fill="#464646"/>
<circle cx="424.86" cy="32.37" r="2" fill="#464646"/>
<g fill="#7F7F7F">
	<path d="m22.572 54.022l-1.393 6.439h0.203c2.407 0 4.119-2.582 4.119-4.786 0-1.625-0.929-3.046-3.191-3.046-4.698 0-7.831 2.64-7.831 7.049 0 1.479 0.377 1.711 0.405 1.972-2.001 0-3.104-0.725-3.104-2.813 0-3.858 5.338-7.542 10.182-7.542 4.554 0 6.585 2.263 6.585 4.641 0 1.711-1.045 3.51-2.901 4.583 2.379 0.464 3.336 2.466 3.336 4.728 0 3.743-2.581 8.297-5.772 8.297-1.74 0-3.423-0.176-3.423-2.002 0-0.494 0.116-1.104 0.377-1.828 0.552 0.9 1.538 1.045 1.944 1.045 1.595 0 2.871-2.871 2.871-5.338 0-1.885-0.725-3.567-2.64-3.567-0.377 0-0.928 0.029-1.45 0.087l-2.379 11.11h-4.177l3.945-18.448 4.294-0.581z"/>
	<path d="m40.958 62.521c0.174 0.173 0.436 0.261 0.841 0.261 1.364 0 1.973-0.987 3.046-1.422l0.116 0.609c-0.899 1.131-2.407 2.088-4.09 2.553-0.551 5.831-3.713 8.702-6.613 8.702-3.104 0-4.438-1.305-4.438-4.756 0-7.137 3.626-10.211 7.629-10.211 2.755 0 3.451 2.147 3.509 4.264zm-2.234 2.292c-0.841 0-1.219-0.609-1.219-1.306 0-0.841 0.493-1.74 1.276-2.03-0.087-0.958-0.405-1.508-1.218-1.508-2.727 0-3.887 5.917-3.887 8.238 0 1.74 0.812 2.205 1.943 2.205 1.771 0 2.757-2.786 3.105-5.599z"/>
	<path d="m54.037 68.41c-0.087 0.318-0.146 0.639-0.146 0.928 0 0.639 0.319 1.074 1.45 1.074 1.161 0 1.596-0.9 2.756-1.828h0.986c-1.334 1.334-3.539 4.467-5.802 4.467-2.262 0-3.597-0.986-3.597-3.162 0-0.463 0.059-0.928 0.175-1.479l1.102-5.221c0.059-0.262 0.087-0.522 0.087-0.755 0-1.044-0.551-1.711-1.334-1.711-0.696 0-1.219 0.203-1.827 0.609l-2.466 11.719h-4.177l3.074-14.503h4.177l-0.348 1.566c1.189-0.87 2.523-1.566 3.8-1.566 1.566 0 3.336 1.682 3.336 3.626 0 0.232 0 0.464-0.058 0.695l-1.188 5.541z"/>
	<path d="m68.624 68.41c-0.087 0.318-0.146 0.639-0.146 0.928 0 0.639 0.319 1.074 1.45 1.074 1.161 0 1.596-0.9 2.756-1.828h0.986c-1.334 1.334-3.539 4.467-5.802 4.467-2.262 0-3.597-0.986-3.597-3.162 0-0.463 0.059-0.928 0.175-1.479l1.102-5.221c0.059-0.262 0.087-0.522 0.087-0.755 0-1.044-0.551-1.711-1.334-1.711-0.696 0-1.219 0.203-1.827 0.609l-2.466 11.719h-4.177l3.074-14.503h4.177l-0.348 1.566c1.189-0.87 2.523-1.566 3.8-1.566 1.566 0 3.336 1.682 3.336 3.626 0 0.232 0 0.464-0.058 0.695l-1.188 5.541z"/>
	<path d="m77.235 70.963c1.103 0 2.089-0.783 2.959-2.176 0.145-2.002 1.102-3.163 2.204-3.249 0.986-1.887 1.566-4.438 2.06-6.643l4.206-0.87v0.406c0 4.786 2.117 6.179 2.117 9.573 0 2.697-1.711 5.047-5.627 5.047-2.813 0-4.38-0.666-4.845-2.553-1.188 1.508-2.697 2.553-5.076 2.553-2.784 0-4.293-2.117-4.293-4.611 0-3.684 1.566-10.153 6.846-10.153 2.379 0 3.713 0.986 3.713 3.017 0 3.539-3.8 5.57-6.556 5.917-0.058 0.465-0.087 0.899-0.087 1.249 0 1.913 1.247 2.493 2.379 2.493zm1.508-11.14c-1.624 0-2.958 3.277-3.567 6.004 2.669-0.029 4.554-2.32 4.583-4.379-1e-3 -0.609-0.145-1.625-1.016-1.625zm3.974 9.312c-0.349 0-0.696-0.086-1.044-0.26 0 1.711 0.928 2.465 2.465 2.465 0.986 0 2.408-1.219 2.408-3.451 0-1.799-1.306-3.336-1.363-6.963-0.465 1.421-0.871 3.278-1.509 4.728 0.696 0.232 0.957 0.754 0.957 1.625-0.028 1.102-0.899 1.856-1.914 1.856z"/>
	<path d="m109.16 69.193l6.091-17.753h2.031l-8.064 21.61h-4.177v-19.811c-3.162 0.986-4.786 3.249-4.786 6.439 0 1.479 0.377 1.711 0.405 1.972-2.001 0-3.104-0.725-3.104-2.813 0-3.858 5.338-7.542 10.182-7.542 0.406 0 0.783 0.029 1.16 0.058l0.262 17.84z"/>
	<path d="m128.6 58.547l-2.088 9.863c-0.059 0.318-0.117 0.639-0.117 0.898 0 0.639 0.291 1.104 1.451 1.104s2.668-1.625 3.828-2.553h0.986c-1.334 1.334-4.611 5.191-6.875 5.191-1.885 0-3.162-0.695-3.539-2.205-0.869 1.189-2.176 2.379-3.943 2.379-2.785 0-3.598-1.973-3.598-3.684 0-4.989 1.799-10.965 7.6-10.965 0.695 0 1.422 0.29 1.943 0.725l0.174-0.754h4.178zm-9.979 10.211c0 1.74 0.957 2.061 1.682 2.061 0.668 0 1.307-0.639 1.857-1.451 0.029-0.291 0.086-0.609 0.174-0.957l1.625-7.688c-0.465-0.406-1.016-0.522-1.422-0.522-2.176-1e-3 -3.916 4.612-3.916 8.557z"/>
	<path d="m138.42 60.607c0-0.696-0.436-0.986-1.074-0.986-2.436 0-4.002 4.729-4.002 7.861 0 1.711 0.348 3.104 2.117 3.104 2.059 0 3.713-1.219 5.047-2.727h0.986c-1.393 1.566-2.959 5.191-8.094 5.191-2.406 0-3.973-1.334-3.973-4.758 0-4.235 1.826-9.833 7.455-9.833 1.566 0 3.189 0.406 3.189 2.001 0 0.319-0.029 0.58-0.145 0.957-0.145-0.087-0.377-0.174-0.725-0.174-0.262 0-0.553 0.058-0.93 0.174 0.09-0.317 0.149-0.578 0.149-0.81z"/>
	<path d="m153.74 58.547l-2.088 9.863c-0.059 0.318-0.117 0.639-0.117 0.898 0 0.639 0.291 1.104 1.451 1.104s2.668-1.625 3.828-2.553h0.986c-1.334 1.334-4.611 5.191-6.875 5.191-1.885 0-3.162-0.695-3.539-2.205-0.869 1.189-2.176 2.379-3.943 2.379-2.785 0-3.598-1.973-3.598-3.684 0-4.989 1.799-10.965 7.6-10.965 0.695 0 1.422 0.29 1.943 0.725l0.174-0.754h4.178zm-9.978 10.211c0 1.74 0.957 2.061 1.682 2.061 0.668 0 1.307-0.639 1.857-1.451 0.029-0.291 0.086-0.609 0.174-0.957l1.625-7.688c-0.465-0.406-1.016-0.522-1.422-0.522-2.176-1e-3 -3.916 4.612-3.916 8.557z"/>
	<path d="m166.7 68.41c-0.086 0.318-0.145 0.639-0.145 0.928 0 0.639 0.318 1.074 1.449 1.074 1.162 0 1.596-0.9 2.756-1.828h0.986c-1.334 1.334-3.539 4.467-5.801 4.467s-3.598-0.986-3.598-3.162c0-0.463 0.059-0.928 0.176-1.479l1.102-5.221c0.059-0.262 0.086-0.522 0.086-0.755 0-1.044-0.551-1.711-1.334-1.711-0.695 0-1.219 0.203-1.826 0.609l-2.467 11.719h-4.176l3.074-14.503h4.176l-0.348 1.566c1.189-0.87 2.523-1.566 3.801-1.566 1.566 0 3.336 1.682 3.336 3.626 0 0.232 0 0.464-0.059 0.695l-1.188 5.541z"/>
	<path d="m178.15 60.607c0-0.696-0.436-0.986-1.074-0.986-2.436 0-4.002 4.729-4.002 7.861 0 1.711 0.348 3.104 2.117 3.104 2.059 0 3.713-1.219 5.047-2.727h0.986c-1.393 1.566-2.959 5.191-8.094 5.191-2.406 0-3.973-1.334-3.973-4.758 0-4.235 1.826-9.833 7.455-9.833 1.566 0 3.189 0.406 3.189 2.001 0 0.319-0.029 0.58-0.145 0.957-0.145-0.087-0.377-0.174-0.725-0.174-0.262 0-0.553 0.058-0.93 0.174 0.091-0.317 0.149-0.578 0.149-0.81z"/>
	<path d="m185.81 70.963c1.104 0 2.09-0.783 2.959-2.176 0.145-2.002 1.102-3.163 2.205-3.249 0.986-1.887 1.566-4.438 2.059-6.643l4.207-0.87v0.406c0 4.786 2.117 6.179 2.117 9.573 0 2.697-1.711 5.047-5.627 5.047-2.814 0-4.381-0.666-4.846-2.553-1.188 1.508-2.697 2.553-5.076 2.553-2.783 0-4.293-2.117-4.293-4.611 0-3.684 1.566-10.153 6.846-10.153 2.379 0 3.713 0.986 3.713 3.017 0 3.539-3.799 5.57-6.555 5.917-0.059 0.465-0.088 0.899-0.088 1.249 0 1.913 1.248 2.493 2.379 2.493zm1.507-11.14c-1.623 0-2.957 3.277-3.566 6.004 2.668-0.029 4.553-2.32 4.582-4.379 0-0.609-0.144-1.625-1.016-1.625zm3.975 9.312c-0.348 0-0.695-0.086-1.045-0.26 0 1.711 0.93 2.465 2.467 2.465 0.986 0 2.408-1.219 2.408-3.451 0-1.799-1.307-3.336-1.363-6.963-0.465 1.421-0.871 3.278-1.51 4.728 0.697 0.232 0.957 0.754 0.957 1.625-0.027 1.102-0.898 1.856-1.914 1.856z"/>
	<path d="m208.31 73.051c-1.275 0-2.32-1.045-2.32-2.32s1.045-2.291 2.32-2.291c1.277 0 2.291 1.016 2.291 2.291s-1.014 2.32-2.291 2.32zm-0.463-6.701l2.059-13.604h4.178l-3.771 13.604h-2.466z"/>
</g>
</svg>
