<?xml version="1.0" encoding="UTF-8"?>
<!DOCTYPE svg  PUBLIC '-//W3C//DTD SVG 1.1//EN'  'http://www.w3.org/Graphics/SVG/1.1/DTD/svg11.dtd'>
<svg enable-background="new 0 0 529.6 136.45" version="1.1" viewBox="0 0 529.6 136.45" xml:space="preserve" xmlns="http://www.w3.org/2000/svg">
<path d="m305.02 26.46c55.207-11.789 109.6 3.181 164.4 4.813 15.889 0.473 32.027-0.26 47.705-2.679 9.534-1.472 11.629 0.124 10.868 9.278-0.783 9.43-1.821 19.328 0.122 28.407 7.007 32.734-11.572 38.397-37.365 36.618-41.576-2.871-83.125-6.146-124.68-9.313-20.562-1.568-40.849 0.559-61.043 4.182 0-23.768-2e-3 -47.537-2e-3 -71.304h-4e-3v-2e-3z" fill="#FDFEFE"/>
<path d="m245.72 20.028c0.364 12.279 0.729 24.558 1.092 36.837-0.304 1.462-0.607 2.923-0.91 4.384-0.023 0.783-0.046 1.566-0.069 2.35-0.427 0.735-0.854 1.471-1.281 2.206-10.151-2.089-18.768 0.533-28.975 3.551-20.83 6.158-43.702 5.409-65.731 7.506-14.573 0.6-29.65 3.801-43.586 1.104-15.521-3.002-31.26 4.416-44.809-0.799-10.276-3.955-4.328 1.373-4.545 4.004-0.657-0.028-1.313-0.062-1.97-0.092-2.696-9.675-5.392-19.351-8.087-29.023 7.692-0.307 15.384-0.613 23.076-0.92 0.327-0.169 0.654-0.338 0.979-0.507 0.539-0.331 1.077-0.663 1.615-0.994 0.139 0.147 0.279 0.294 0.419 0.439 0.321 0.652 0.643 1.305 0.964 1.957l0.01 0.017c10.95 16.544 27.92 13.248 43.947 13.569 17.25 0.347 28.373-17.612 47.421-14.106 13.398 2.467 27.719-0.075 41.627-0.381 0.724-0.202 1.449-0.404 2.173-0.605 12.233-6.92 14.244-21.106 22.114-31.13 1.216-1.549 2.271-3.224 3.4-4.84 6.191-0.466 5.392 3.765 5.351 7.729-0.093 8.974-0.171 17.955 0.151 26.919 0.063 1.724 1.98 3.381 3.042 5.068 0.594-1.649 1.636-3.28 1.708-4.952 0.418-9.762 0.608-19.527 0.874-29.291z" fill="#EF504E"/>
<path d="m169.98 103.21c5.495 4.766 17.543 3.326 14.922 15.771-38.756 6.649-76.602 8.149-109.34-19.292 0.156-0.876 0.313-1.753 0.469-2.629 1.634-1.641 3.268-3.277 4.902-4.917 0.528-0.106 1.056-0.218 1.584-0.326 12.988-1.716 25.976-3.433 38.964-5.146 18.248-0.588 32.187 11.461 48.501 16.539h-3e-3z" fill="#FDFEFE"/>
<path d="m46.851 52.052c2.696 9.675 5.392 19.351 8.087 29.025 3.371 0.192 6.742 0.389 10.113 0.58 9.619-0.162 19.238-0.328 28.855-0.492-1.033 1.57-2.065 3.145-3.099 4.715-0.383 0.242-0.766 0.483-1.149 0.728-7.923 0.218-15.847 0.437-23.77 0.653-1.637 0.041-3.274 0.082-4.911 0.123-0.703 4e-3 -1.406 8e-3 -2.109 0.011-0.632 0.011-1.264 0.021-1.896 0.03-3.884 12.974-2.572 27.346-10.554 39.215-5.21 5.285-10.851 7.49-17.504 2.445-0.344-0.672-0.688-1.344-1.031-2.016 1.008-0.013 2.017-0.025 3.025-0.037 14.457-14.779 11.385-33.34 10.133-51.051-0.641-9.063 0.147-19.98-11.067-24.861-0.693-0.083-1.386-0.166-2.079-0.249 0.682-0.885 1.363-1.769 2.045-2.652 6.289-5.002 11.369-2.34 16.1 2.539 0.271 0.432 0.541 0.864 0.811 1.294z" fill="#FAF9F6"/>
<path d="m121.48 86.676c-12.988 1.716-25.976 3.432-38.963 5.146 3.469-1.281 6.939-2.564 10.408-3.846 0.915-0.092 1.831-0.18 2.747-0.27 0.527 0 1.055 2e-3 1.583 2e-3 1.566-0.559 3.133-1.117 4.7-1.676 2.266-0.68 4.533-1.357 6.799-2.035-2.309-1.062-4.618-2.121-6.927-3.182 16.009-1.318 32.018-2.641 48.027-3.96 22.031-2.097 44.903-1.349 65.732-7.506 10.207-3.018 18.823-5.64 28.976-3.551 4.904 2.257 9.808 4.514 14.711 6.77 0.767 1.472 1.534 2.943 2.302 4.415-2.642 1.1-5.272 3.102-7.928 3.131-8.403 0.096-16.814-0.546-25.222-0.902-4.488-0.932-8.976-1.863-13.464-2.799-0.368 0.137-0.735 0.272-1.103 0.41-8.018 1.02-16.035 2.043-24.053 3.063-0.629 0.063-1.259 0.122-1.888 0.185-2.002 0.329-4.004 0.658-6.006 0.987-1.952 0.312-3.904 0.619-5.856 0.931-6.04 0.354-12.079 0.707-18.119 1.061-1.345 0.027-2.689 0.056-4.034 0.082-10.791 0.635-21.583 1.25-32.372 1.93-1.144 0.072-2.263 0.525-3.393 0.803 1.114 0.27 2.228 0.542 3.343 0.811z" fill="#FAF9F6"/>
<path d="m100.84 28.115c-3.311-7.71 0.267-14.267 3.988-20.446 4.908-8.151 13.461-8.476 21.266-6.953 9.826 1.918 13.104 10.65 13.603 19.234 0.42 7.244-1.778 14.641-2.816 21.97-7.758-15.711-22.145-14.119-36.041-13.805z" fill="#464646"/>
<path d="m92.919 87.978c-3.47 1.282-6.939 2.563-10.409 3.847-0.528 0.107-1.056 0.217-1.584 0.325-9.106-10.03-15.998 1.474-23.841 2.987-0.531 0.104-0.848 10.227 0.733 10.885 8.677 3.609 15.429 0.74 18.206-8.955-0.156 0.876-0.313 1.753-0.468 2.628-2.849 12.877 8.771 15.761 15.306 22.155-14.813 1.597-29.626 3.191-44.441 4.789 7.981-11.869 6.669-26.241 10.553-39.215 0.632-0.01 1.264-0.021 1.896-0.03 0.703-3e-3 1.406-7e-3 2.109-0.011 1.637-0.041 3.274-0.082 4.911-0.123 7.923-0.219 15.847-0.438 23.77-0.653 1.087 0.457 2.173 0.914 3.259 1.371z" fill="#E6443F"/>
<path d="m90.861 121.85c-6.535-6.396-18.155-9.277-15.306-22.155 32.74 27.442 70.585 25.944 109.34 19.294-7.481 11.803-19.81 7.031-30.214 8.838-9.533 6e-3 -19.068 0.014-28.602 0.021l-35.22-5.996 3e-3 -2e-3z" fill="#E6E5E3"/>
<path d="m214.96 76.418c4.488 0.935 8.976 1.867 13.464 2.799-19.481 8-38.961 16-58.443 24-16.316-5.078-30.255-17.127-48.501-16.541-1.115-0.27-2.229-0.539-3.343-0.811 1.13-0.275 2.25-0.729 3.393-0.803 10.788-0.682 21.581-1.295 32.372-1.93-13.234 15.296 10.432 3.513 7.99 10.889-0.073 0.107-0.215 0.227-0.207 0.327 0.021 0.243 0.113 0.483 0.176 0.728 0.698 6e-3 1.396 0.012 2.095 0.018 11.324-2.854 23.114-4.582 33.787-9.008 5.8-2.404 15.692 0.696 17.217-9.668z" fill="#E6443F"/>
<path d="m98.213 51.916c0.918-2.604 1.836-5.207 2.755-7.811 2.252 0.637 4.503 1.273 6.755 1.911l0.909 7.038c0.41-2.654 0.82-5.309 1.23-7.963 8.981-5e-3 17.962-0.01 26.943-0.016 0.088 2.426 0.177 4.851 0.265 7.275-2.76 1.808-5.521 3.615-8.281 5.423-10.659 0.46-21.318 0.921-31.977 1.382 0.468-2.412 0.936-4.826 1.401-7.239z" fill="#EBF3FA"/>
<path d="m107.72 46.016c-2.252-0.638-4.503-1.274-6.755-1.911-0.042-5.33-0.084-10.66-0.127-15.99 13.896-0.313 28.282-1.906 36.04 13.805-0.025 1.053-0.05 2.104-0.075 3.156-8.98 6e-3 -17.962 0.011-26.944 0.016-0.713 0.307-1.425 0.616-2.139 0.924zm0.128-2.903c0.393 0.018 0.785 0.036 1.178 0.054 1.237-0.853 2.474-1.705 3.711-2.558-0.799-0.486-1.583-1.35-2.4-1.382-1.708-0.067-3.434 0.304-5.152 0.495 0.887 1.13 1.775 2.261 2.663 3.391z" fill="#E5C6AC"/>
<path d="m27.883 127.07c0.344 0.673 0.688 1.343 1.032 2.015-2.471 2.629-4.769 7.099-7.464 7.353-2.513 0.235-7.053-3.521-7.911-6.362-3.188-10.556-5.226-21.457-7.694-32.229 4.343 1.069 8.685 2.14 13.027 3.209 0.876 9.2 1.656 18.437 8.983 25.353-0.011 0.216-2e-3 0.439 0.027 0.661z" fill="#C9E4F1"/>
<path d="m18.872 101.05l-13.026-3.209c-7.682-6.141-7.956-12.213 0.153-18.219 4.605-1.019 9.211-2.035 13.816-3.054l0.209 0.399c0.944 5.348 1.888 10.693 2.831 16.041-0.34 2.335-0.68 4.666-1.021 7-0.987 0.35-1.975 0.697-2.962 1.042z" fill="#EF504E"/>
<path d="m128.79 57.774c2.76-1.808 5.521-3.615 8.281-5.423 2.887-1.554 4.902-7.752 9.206-1.729 1.27 3e-3 2.543 8e-3 3.817 0.013 18.233 9e-3 36.466 0.017 54.699 0.025 0.706 0.156 1.412 0.312 2.118 0.467-13.909 0.306-28.229 2.848-41.627 0.381-19.048-3.506-30.17 14.453-47.421 14.106-16.026-0.321-32.997 2.975-43.947-13.569 16.758 12.751 35.306 13.676 54.791 8.24 0.822-0.229 1.511-0.935 2.261-1.417-0.727-0.366-1.453-0.73-2.178-1.094z" fill="#E6443F"/>
<path d="m305.02 26.46c0 23.768 2e-3 47.537 2e-3 71.304-0.898 0.729-1.799 1.461-2.696 2.189-0.527-1.236-1.054-2.476-1.58-3.705-0.013-4.063-0.024-8.138-0.037-12.209 8e-3 -14.332 0.019-28.664 0.024-42.994-0.014-1.002-0.024-2.003-0.036-3.005 0.018-0.919 0.034-1.839 0.052-2.751-0.036-2.636-0.071-5.279-0.105-7.923 0.907-2.951 2.335-3.411 4.376-0.906z" fill="#E6443F"/>
<path d="m19.814 76.575c-4.605 1.018-9.21 2.034-13.816 3.053 1.941-11.938 0.937-24.68 9.52-34.801 1.434 10.581 2.865 21.164 4.296 31.748z" fill="#C9E4F1"/>
<path d="m245.72 20.028c-0.267 9.764-0.456 19.529-0.873 29.286-0.071 1.672-1.114 3.303-1.708 4.952-1.062-1.688-2.98-3.345-3.042-5.068-0.322-8.964-0.244-17.945-0.151-26.919 0.041-3.963 0.84-8.193-5.351-7.728 2.406-0.752 5.761-2.839 7.005-1.954 2.083 1.479 2.818 4.854 4.12 7.431z" fill="#E6443F"/>
<path d="m300.71 84.04c0.012 4.072 0.025 8.146 0.037 12.209-6.007-21.592-27.63-15.806-41.473-23.67-4.908-2.261-9.812-4.518-14.716-6.772 0.426-0.735 0.853-1.471 1.28-2.203 18.292 6.813 36.581 13.623 54.872 20.436z" fill="#E5C6AC"/>
<path d="m300.7 38.042c0.012 1.002 0.023 2.003 0.037 3.005-18.275 6.734-36.552 13.468-54.828 20.202 0.303-1.461 0.606-2.922 0.91-4.384 17.961-6.276 35.921-12.549 53.881-18.823z" fill="#E5C6AC"/>
<path d="m128.79 57.774c0.726 0.364 1.451 0.729 2.177 1.094-0.75 0.482-1.439 1.188-2.261 1.417-19.485 5.436-38.033 4.511-54.791-8.24l-0.01-0.017c-0.321-0.652-0.643-1.305-0.964-1.957-0.141-0.146-0.281-0.292-0.419-0.439 1.453-0.463 2.906-0.925 4.339-1.396 1.345 1.54 2.709 3.09 4.074 4.641 5.293 2.094 10.585 4.188 15.878 6.281 10.659-0.463 21.318-0.924 31.977-1.384z" fill="#EF504E"/>
<path d="m19.814 76.575c-1.432-10.583-2.863-21.167-4.296-31.75 1.379-3.34 3.603-5.005 7.327-3.69-0.224 5.737-0.448 11.477-0.672 17.215-0.209 6.188-0.419 12.378-0.628 18.566-0.506 0.021-1.014 0.039-1.521 0.059l-0.21-0.4z" fill="#EAF3FA"/>
<path d="m96.813 59.156c-5.292-2.094-10.585-4.188-15.877-6.281 3.693-0.837 7.386-1.675 11.08-2.512-0.369 0.315-0.739 0.632-1.108 0.947 2.435 0.202 4.869 0.404 7.305 0.605-0.465 2.414-0.933 4.828-1.4 7.241z" fill="#E5C6AC"/>
<path d="m22.173 58.349c0.224-5.738 0.448-11.478 0.672-17.215 2.365 2.361 4.731 4.723 7.097 7.084-0.682 0.885-1.364 1.769-2.045 2.653-1.908 2.494-3.816 4.986-5.724 7.478z" fill="#C9E4F1"/>
<path d="m90.908 51.31c0.369-0.315 0.739-0.632 1.108-0.947-3.693 0.837-7.386 1.675-11.08 2.512-1.365-1.551-2.73-3.101-4.075-4.641-1.108-0.559-2.235-1.128-3.363-1.697 0.017 0.393-0.057 1.096 0.064 1.131 2.259 0.658 5.282 2.458 6.683 1.608 4.556-2.764 7.774-2.169 10.663 2.034z" fill="#464646"/>
<path d="m126.08 127.84c9.534-8e-3 19.069-0.016 28.602-0.021-9.535 8e-3 -19.069 0.012-28.602 0.021z" fill="#EBF3FA"/>
<path d="m46.851 52.052c-0.27-0.431-0.54-0.862-0.81-1.294 1.249-0.036 2.497-0.07 3.745-0.104 0.76 4e-3 1.521 9e-3 2.281 0.013 0.577-8e-3 1.154-0.016 1.731-0.023 0.416 6e-3 0.833 0.012 1.25 0.017 4.582 0 9.164-1e-3 13.746-1e-3 0.378 0.158 0.756 0.315 1.134 0.474-7.694 0.305-15.386 0.612-23.077 0.918z" fill="#E6443F"/>
<path d="m300.64 27.368c0.035 2.644 0.07 5.287 0.106 7.923-0.035-2.647-0.071-5.286-0.106-7.923z" fill="#E5C6AC"/>
<path d="m206.91 51.127c-0.706-0.155-1.412-0.311-2.118-0.467 1.43-0.047 2.86-0.093 4.291-0.14-0.724 0.202-1.449 0.404-2.173 0.607z" fill="#E8A09E"/>
<path d="m150.1 50.634c-1.274-5e-3 -2.548-0.01-3.817-0.013 1.276 6e-3 2.546 9e-3 3.817 0.013z" fill="#E8A09E"/>
<path d="m69.927 51.132c-0.378-0.158-0.756-0.315-1.134-0.474 0.706-0.012 1.413-0.023 2.117-0.034-0.329 0.17-0.657 0.339-0.983 0.508z" fill="#E8A09E"/>
<path d="m52.067 50.667c-0.76-4e-3 -1.521-9e-3 -2.281-0.013 0.761 4e-3 1.521 9e-3 2.281 0.013z" fill="#E8A09E"/>
<path d="m55.048 50.66c-0.417-5e-3 -0.833-0.011-1.25-0.017 0.417 6e-3 0.833 0.012 1.25 0.017z" fill="#E8A09E"/>
<path d="m149.85 76.861c-16.009 1.319-32.018 2.642-48.027 3.96-2.638 0.115-5.275 0.229-7.914 0.344-9.619 0.166-19.238 0.33-28.855 0.494-2.714-0.162-5.428-0.326-8.143-0.488 0.217-2.631-5.73-7.959 4.545-4.004 13.548 5.213 29.287-2.203 44.809 0.799 13.935 2.695 29.011-0.507 43.585-1.105zm-57.284 1.615c-0.271-0.112-0.535-0.259-0.817-0.321-0.112-0.025-0.265 0.131-0.399 0.204 0.161 0.185 0.32 0.519 0.483 0.521 0.246-1e-3 0.492-0.228 0.733-0.404z" fill="#E6443F"/>
<path d="m56.909 81.168c2.714 0.164 5.429 0.326 8.143 0.488-3.371-0.191-6.742-0.388-10.113-0.58 0.656 0.032 1.313 0.063 1.97 0.092z" fill="#E8A09E"/>
<path d="m72.941 50.071c0.321 0.652 0.643 1.305 0.964 1.957-0.321-0.652-0.641-1.305-0.964-1.957z" fill="#E6443F"/>
<path d="m76.023 97.067c-2.777 9.695-9.528 12.564-18.206 8.955-1.582-0.658-1.265-10.781-0.733-10.885 7.843-1.516 14.735-13.018 23.841-2.987-1.633 1.64-3.267 3.278-4.902 4.917z" fill="#EF504E"/>
<path d="m22.173 58.349c1.908-2.492 3.816-4.984 5.724-7.478 0.692 0.083 1.385 0.166 2.078 0.249 7.773 20.265 7.298 41.032 3.772 61.984-2.145-4.352-4.288-8.701-6.431-13.053 7.123 0.568 5.23-4.985 5.489-8.578 0.578-8.01 1.055-16.354-11.261-14.559 0.209-6.187 0.419-12.376 0.629-18.565z" fill="#E8A09E"/>
<path d="m33.747 113.1c3.526-20.952 4.001-41.721-3.772-61.984 11.214 4.881 10.426 15.798 11.067 24.861 1.252 17.711 4.324 36.27-10.133 51.053 0.945-4.645 1.892-9.287 2.838-13.93z" fill="#E6443F"/>
<path d="m33.747 113.1c-0.946 4.643-1.892 9.285-2.838 13.93-1.008 0.012-2.017 0.023-3.025 0.036-0.029-0.222-0.039-0.442-0.028-0.667-2.007-8.797-4.014-17.594-6.021-26.389 0.34-2.334 0.681-4.666 1.021-7 1.487 2.346 2.974 4.691 4.46 7.037 2.143 4.352 4.287 8.701 6.431 13.053z" fill="#E6E5E3"/>
<path d="m93.907 81.165c2.638-0.113 5.276-0.229 7.914-0.344 2.309 1.061 4.618 2.12 6.927 3.182-2.267 0.679-4.533 1.355-6.8 2.035l-11.138-0.157c1.031-1.572 2.065-3.144 3.097-4.716z" fill="#FDFEFE"/>
<path d="m90.809 85.879l11.139 0.156c-1.566 0.559-3.133 1.117-4.704 1.676-0.529-2e-3 -1.054-2e-3 -1.578-2e-3 -0.916 0.09-1.832 0.18-2.747 0.27-1.086-0.458-2.173-0.915-3.259-1.372 0.382-0.241 0.765-0.483 1.149-0.728z" fill="#E8A09E"/>
<path d="m65.89 87.26c-1.637 0.041-3.274 0.082-4.911 0.123 1.637-0.041 3.273-0.082 4.911-0.123z" fill="#EF504E"/>
<path d="m58.87 87.394c-0.632 0.011-1.264 0.021-1.896 0.03 0.63-7e-3 1.263-0.019 1.896-0.03z" fill="#EF504E"/>
<path d="m214.96 76.418c-1.525 10.363-11.417 7.265-17.218 9.668-10.673 4.426-22.463 6.154-33.787 9.008 0 0-0.14-0.107-0.138-0.107-0.624-0.305-1.25-0.611-1.875-0.917l-0.052-0.046c2.442-7.376-21.224 4.406-7.99-10.889 1.345-0.026 2.689-0.055 4.034-0.082 6.04-0.354 12.079-0.707 18.119-1.061 1.952-0.311 3.904-0.619 5.856-0.931 2.002-0.329 4.004-0.658 6.006-0.985 0.629-0.063 1.259-0.123 1.889-0.186 8.018-1.021 16.035-2.043 24.053-3.063 0.368-0.136 0.735-0.272 1.103-0.409z" fill="#EF504E"/>
<path d="m213.85 76.829c-8.018 1.021-16.035 2.043-24.053 3.063 8.018-1.02 16.035-2.043 24.053-3.063z" fill="#E6443F"/>
<path d="m176.05 81.993c-6.04 0.354-12.079 0.707-18.119 1.062 6.04-0.355 12.08-0.709 18.119-1.062z" fill="#E6443F"/>
<path d="m187.91 80.077c-2.002 0.328-4.004 0.657-6.006 0.986 2.001-0.329 4.003-0.658 6.006-0.986z" fill="#E6443F"/>
<path d="m95.667 87.709c0.524 0 1.049 0 1.578 2e-3 -0.524 0-1.052 0-1.578-2e-3z" fill="#FDFEFE"/>
<path d="m163.95 95.092c-0.698-6e-3 -1.396-0.01-2.095-0.018l0.114-0.099c0.614 2e-3 1.228 5e-3 1.841 8e-3l0.14 0.109z" fill="#EF504E"/>
<path d="m161.86 95.077c-0.063-0.24-0.155-0.479-0.176-0.727-9e-3 -0.104 0.133-0.219 0.207-0.327 0 0 0.052 0.046 0.051 0.046 7e-3 0.303 0.019 0.605 0.032 0.909l-0.114 0.099z" fill="#EF504E"/>
<path d="m107.72 46.016c0.713-0.309 1.426-0.617 2.139-0.925-0.41 2.654-0.819 5.309-1.229 7.963-0.304-2.345-0.607-4.692-0.91-7.038z" fill="#EF504E"/>
<path d="m107.85 43.113c-0.888-1.13-1.776-2.261-2.664-3.391 1.718-0.191 3.444-0.563 5.152-0.495 0.817 0.032 1.601 0.896 2.4 1.382-1.237 0.853-2.474 1.705-3.71 2.558-0.393-0.019-0.786-0.037-1.178-0.054z" fill="#E6443F"/>
<path d="m107.85 43.113c0.394 0.018 0.787 0.035 1.179 0.054-0.395-0.018-0.788-0.037-1.179-0.054z" fill="#EF504E"/>
<path d="m21.834 100.01c2.007 8.795 4.015 17.592 6.021 26.389-7.327-6.914-8.107-16.148-8.983-25.35 0.987-0.345 1.975-0.693 2.962-1.039z" fill="#E8A09E"/>
<path d="m27.315 100.05c-1.487-2.346-2.974-4.691-4.46-7.037l-2.832-16.041c0.507-0.02 1.015-0.038 1.521-0.059 12.315-1.795 11.837 6.549 11.26 14.559-0.259 3.593 1.634 9.149-5.489 8.578z" fill="#E5C6AC"/>
<path d="m92.566 78.499c-0.244 0.153-0.491 0.383-0.735 0.381-0.163-2e-3 -0.322-0.336-0.483-0.521 0.134-0.073 0.287-0.229 0.399-0.204 0.282 0.062 0.546 0.209 0.819 0.344z" fill="#EF504E"/>
<path d="m161.97 94.978c-0.014-0.304-0.025-0.606-0.032-0.909 0.625 0.307 1.251 0.611 1.875 0.917-0.616-3e-3 -1.23-6e-3 -1.843-8e-3z" fill="#E6443F"/>
<circle cx="115.99" cy="32.539" r="2" fill="#464646"/>
<circle cx="104.74" cy="32.372" r="2" fill="#464646"/>
<g fill="#7F7F7F">
	<path d="m329.26 53.197l-1.393 6.439h0.203c2.407 0 4.119-2.582 4.119-4.786 0-1.625-0.929-3.046-3.191-3.046-4.698 0-7.831 2.64-7.831 7.049 0 1.479 0.377 1.711 0.405 1.972-2.001 0-3.104-0.725-3.104-2.813 0-3.858 5.338-7.542 10.182-7.542 4.554 0 6.585 2.263 6.585 4.641 0 1.711-1.045 3.51-2.901 4.583 2.379 0.464 3.336 2.466 3.336 4.729 0 3.742-2.581 8.296-5.772 8.296-1.74 0-3.423-0.175-3.423-2.001 0-0.494 0.116-1.104 0.377-1.828 0.552 0.899 1.538 1.045 1.944 1.045 1.595 0 2.871-2.872 2.871-5.338 0-1.885-0.725-3.568-2.64-3.568-0.377 0-0.928 0.029-1.45 0.087l-2.379 11.11h-4.177l3.945-18.448 4.294-0.581z"/>
	<path d="m347.65 61.696c0.174 0.174 0.436 0.261 0.841 0.261 1.364 0 1.973-0.986 3.046-1.421l0.116 0.609c-0.899 1.131-2.407 2.088-4.09 2.553-0.551 5.831-3.713 8.702-6.613 8.702-3.104 0-4.438-1.305-4.438-4.757 0-7.136 3.626-10.21 7.629-10.21 2.755-1e-3 3.452 2.145 3.509 4.263zm-2.233 2.291c-0.841 0-1.219-0.609-1.219-1.306 0-0.841 0.493-1.74 1.276-2.03-0.087-0.958-0.405-1.508-1.218-1.508-2.727 0-3.887 5.917-3.887 8.238 0 1.741 0.812 2.205 1.943 2.205 1.771-1e-3 2.757-2.785 3.105-5.599z"/>
	<path d="m360.73 67.584c-0.087 0.319-0.146 0.638-0.146 0.928 0 0.639 0.319 1.073 1.45 1.073 1.161 0 1.596-0.899 2.756-1.828h0.986c-1.334 1.334-3.539 4.467-5.802 4.467-2.262 0-3.597-0.986-3.597-3.162 0-0.464 0.059-0.928 0.175-1.479l1.102-5.221c0.059-0.261 0.087-0.522 0.087-0.754 0-1.044-0.551-1.711-1.334-1.711-0.696 0-1.219 0.203-1.827 0.609l-2.466 11.719h-4.177l3.074-14.503h4.177l-0.348 1.566c1.189-0.87 2.523-1.566 3.8-1.566 1.566 0 3.336 1.682 3.336 3.626 0 0.232 0 0.464-0.058 0.696l-1.188 5.54z"/>
	<path d="m375.32 67.584c-0.087 0.319-0.146 0.638-0.146 0.928 0 0.639 0.319 1.073 1.45 1.073 1.161 0 1.596-0.899 2.756-1.828h0.986c-1.334 1.334-3.539 4.467-5.802 4.467-2.262 0-3.597-0.986-3.597-3.162 0-0.464 0.059-0.928 0.175-1.479l1.102-5.221c0.059-0.261 0.087-0.522 0.087-0.754 0-1.044-0.551-1.711-1.334-1.711-0.696 0-1.219 0.203-1.827 0.609l-2.466 11.719h-4.177l3.074-14.503h4.177l-0.348 1.566c1.189-0.87 2.523-1.566 3.8-1.566 1.566 0 3.336 1.682 3.336 3.626 0 0.232 0 0.464-0.058 0.696l-1.188 5.54z"/>
	<path d="m383.93 70.137c1.103 0 2.089-0.783 2.959-2.176 0.145-2.001 1.102-3.162 2.204-3.249 0.986-1.886 1.566-4.438 2.06-6.643l4.206-0.87v0.406c0 4.786 2.117 6.179 2.117 9.572 0 2.698-1.711 5.047-5.627 5.047-2.813 0-4.38-0.667-4.845-2.553-1.188 1.508-2.697 2.553-5.076 2.553-2.784 0-4.293-2.117-4.293-4.612 0-3.684 1.566-10.152 6.846-10.152 2.379 0 3.713 0.986 3.713 3.017 0 3.539-3.8 5.569-6.556 5.917-0.058 0.464-0.087 0.899-0.087 1.248 0 1.915 1.247 2.495 2.379 2.495zm1.508-11.139c-1.624 0-2.958 3.278-3.567 6.004 2.669-0.029 4.554-2.321 4.583-4.38-1e-3 -0.609-0.145-1.624-1.016-1.624zm3.974 9.311c-0.349 0-0.696-0.087-1.044-0.261 0 1.711 0.928 2.466 2.465 2.466 0.986 0 2.408-1.219 2.408-3.452 0-1.799-1.306-3.336-1.363-6.962-0.465 1.421-0.871 3.278-1.509 4.728 0.696 0.232 0.957 0.754 0.957 1.625-0.028 1.102-0.899 1.856-1.914 1.856z"/>
	<path d="m415.86 68.367l6.092-17.752h2.03l-8.063 21.61h-4.177v-19.811c-3.162 0.986-4.786 3.249-4.786 6.439 0 1.479 0.377 1.711 0.405 1.972-2.001 0-3.104-0.725-3.104-2.813 0-3.858 5.338-7.542 10.182-7.542 0.406 0 0.783 0.029 1.16 0.058l0.261 17.839z"/>
	<path d="m435.29 57.722l-2.088 9.862c-0.059 0.319-0.116 0.638-0.116 0.899 0 0.638 0.29 1.102 1.45 1.102s2.669-1.625 3.829-2.553h0.986c-1.335 1.334-4.612 5.192-6.875 5.192-1.886 0-3.162-0.696-3.539-2.205-0.87 1.189-2.176 2.379-3.944 2.379-2.785 0-3.598-1.973-3.598-3.684 0-4.989 1.799-10.965 7.601-10.965 0.695 0 1.421 0.29 1.943 0.725l0.174-0.754h4.177zm-9.978 10.21c0 1.74 0.957 2.06 1.683 2.06 0.667 0 1.306-0.638 1.856-1.451 0.029-0.29 0.087-0.609 0.174-0.957l1.625-7.687c-0.465-0.406-1.016-0.522-1.422-0.522-2.176 0-3.916 4.612-3.916 8.557z"/>
	<path d="m445.12 59.781c0-0.696-0.436-0.986-1.073-0.986-2.437 0-4.003 4.728-4.003 7.861 0 1.711 0.348 3.104 2.117 3.104 2.06 0 3.713-1.218 5.047-2.727h0.986c-1.392 1.566-2.958 5.192-8.093 5.192-2.407 0-3.974-1.334-3.974-4.757 0-4.235 1.827-9.833 7.455-9.833 1.566 0 3.19 0.406 3.19 2.001 0 0.319-0.029 0.58-0.146 0.957-0.145-0.087-0.377-0.174-0.725-0.174-0.262 0-0.552 0.058-0.929 0.174 0.09-0.319 0.148-0.58 0.148-0.812z"/>
	<path d="m460.43 57.722l-2.088 9.862c-0.059 0.319-0.116 0.638-0.116 0.899 0 0.638 0.29 1.102 1.45 1.102s2.669-1.625 3.829-2.553h0.986c-1.335 1.334-4.612 5.192-6.875 5.192-1.886 0-3.162-0.696-3.539-2.205-0.87 1.189-2.176 2.379-3.944 2.379-2.785 0-3.598-1.973-3.598-3.684 0-4.989 1.799-10.965 7.601-10.965 0.695 0 1.421 0.29 1.943 0.725l0.174-0.754h4.177zm-9.979 10.21c0 1.74 0.957 2.06 1.683 2.06 0.667 0 1.306-0.638 1.856-1.451 0.029-0.29 0.087-0.609 0.174-0.957l1.625-7.687c-0.465-0.406-1.016-0.522-1.422-0.522-2.176 0-3.916 4.612-3.916 8.557z"/>
	<path d="m473.39 67.584c-0.087 0.319-0.146 0.638-0.146 0.928 0 0.639 0.319 1.073 1.45 1.073 1.161 0 1.596-0.899 2.756-1.828h0.986c-1.334 1.334-3.539 4.467-5.802 4.467-2.262 0-3.597-0.986-3.597-3.162 0-0.464 0.059-0.928 0.175-1.479l1.102-5.221c0.059-0.261 0.087-0.522 0.087-0.754 0-1.044-0.551-1.711-1.334-1.711-0.696 0-1.219 0.203-1.827 0.609l-2.466 11.719h-4.176l3.074-14.503h4.177l-0.348 1.566c1.189-0.87 2.523-1.566 3.8-1.566 1.566 0 3.336 1.682 3.336 3.626 0 0.232 0 0.464-0.058 0.696l-1.189 5.54z"/>
	<path d="m484.85 59.781c0-0.696-0.436-0.986-1.073-0.986-2.437 0-4.003 4.728-4.003 7.861 0 1.711 0.348 3.104 2.117 3.104 2.06 0 3.713-1.218 5.047-2.727h0.986c-1.392 1.566-2.958 5.192-8.093 5.192-2.407 0-3.974-1.334-3.974-4.757 0-4.235 1.827-9.833 7.455-9.833 1.566 0 3.19 0.406 3.19 2.001 0 0.319-0.029 0.58-0.146 0.957-0.145-0.087-0.377-0.174-0.725-0.174-0.262 0-0.552 0.058-0.929 0.174 0.089-0.319 0.148-0.58 0.148-0.812z"/>
	<path d="m492.5 70.137c1.103 0 2.089-0.783 2.959-2.176 0.145-2.001 1.102-3.162 2.204-3.249 0.986-1.886 1.566-4.438 2.06-6.643l4.206-0.87v0.406c0 4.786 2.117 6.179 2.117 9.572 0 2.698-1.711 5.047-5.627 5.047-2.813 0-4.38-0.667-4.845-2.553-1.188 1.508-2.697 2.553-5.076 2.553-2.784 0-4.293-2.117-4.293-4.612 0-3.684 1.566-10.152 6.846-10.152 2.379 0 3.713 0.986 3.713 3.017 0 3.539-3.8 5.569-6.556 5.917-0.058 0.464-0.087 0.899-0.087 1.248 0 1.915 1.248 2.495 2.379 2.495zm1.508-11.139c-1.624 0-2.958 3.278-3.567 6.004 2.669-0.029 4.554-2.321 4.583-4.38-1e-3 -0.609-0.145-1.624-1.016-1.624zm3.974 9.311c-0.349 0-0.696-0.087-1.045-0.261 0 1.711 0.929 2.466 2.466 2.466 0.986 0 2.408-1.219 2.408-3.452 0-1.799-1.306-3.336-1.363-6.962-0.465 1.421-0.871 3.278-1.509 4.728 0.696 0.232 0.957 0.754 0.957 1.625-0.028 1.102-0.899 1.856-1.914 1.856z"/>
	<path d="m515 72.225c-1.276 0-2.32-1.045-2.32-2.32 0-1.276 1.044-2.292 2.32-2.292s2.291 1.016 2.291 2.292c0 1.275-1.015 2.32-2.291 2.32zm-0.464-6.701l2.06-13.604h4.177l-3.771 13.604h-2.466z"/>
</g>
</svg>
