<?xml version="1.0" encoding="UTF-8"?>
<svg enable-background="new 0 0 1920.2 277.4" version="1.1" viewBox="0 0 1920.2 277.4" xml:space="preserve" xmlns="http://www.w3.org/2000/svg">
	<path d="m1920.1 50.3c0 74.3 0 148.7 0.1 223 0 3.4-0.7 4.1-4.1 4.1-637.3-0.1-1274.7-0.1-1912 0-3.4 0-4.1-0.7-4.1-4.1 0.1-80 0.1-160 0.1-240 2-0.7 4.1-1.3 6.1-2.1 22.5-9.2 45.4-17.4 69-23.4 25.3-6.4 50.7-11.5 76.8-4.5 3 0.8 6.2 1.4 9.3 1.9 19.3 3.3 38.8 5.5 58.3 7.2 18.4 1.6 36.7 3.4 55.1 4.8 16.7 1.3 33.5 2.1 50.3 3.2 23.7 1.6 47.4 3.1 71.1 5 13.6 1.1 27 2.8 40.1 7.2 36.4 12.3 72.7 25.2 109.7 35.7 17.8 5.1 35.6 10.5 54.1 11.4 16.2 0.8 32.5 1.3 48.8 0.8 30.1-0.8 60.2-0.7 90.3-2.2 18.6-0.9 37.2-1.4 55.8-2.3 8.6-0.4 17.3-0.8 25.8-2.2 30.9-4.8 62-7.8 92.9-11.6 23.2-2.9 46.5-5.2 69.8-8.3 25-3.3 50-7.2 74.9-10.9 23.3-3.5 46.6-5.3 70.1-2.8 9.3 1 18.6 2.5 26.5 7.9 5.5 3.8 11.6 5.8 18 7.1 13.9 2.7 27.9 4.2 42 5.2 22.5 1.6 45 3.8 67.5 5.7 16.4 1.4 33 2.5 48.7 7.4 22.2 7 44.6 9.9 67.9 7.8 18.7-1.7 37.3-4.2 55.8-7.6 30.9-5.7 61.6-12.3 91.8-21.2 19.4-5.7 39.4-8.5 59.6-8.2 14.4 0.2 28.8 2 43.3 2.6 20.6 0.9 41.2 1.4 61.8 2.1 16.6 0.5 33.3 0.3 49.9 0.8 35.3 1 70.6 1.4 105.9 1 17.7 0 35.4-0.3 53-0.5z" fill="#F1E5A9"/>
</svg>
