<?xml version="1.0" encoding="UTF-8"?>
<!DOCTYPE svg  PUBLIC '-//W3C//DTD SVG 1.1//EN'  'http://www.w3.org/Graphics/SVG/1.1/DTD/svg11.dtd'>
<svg width="1920px" height="400.18px" enable-background="new 0 0 1920 400.184" version="1.1" viewBox="0 0 1920 400.184" xml:space="preserve" xmlns="http://www.w3.org/2000/svg">
	<path d="m-17.955 104.9c10.228 0 162.5-58.357 172.73-93.641 10.227-35.285 31.817 46.142 65.909 54.285 34.091 8.143 46.591 27.142 46.591 27.142l94.318 5.43s12.5 23.07 26.136 25.784 80.682 1.358 80.682 1.358 77.272-31.215 92.045-46.143 30.682 4.071 30.682 4.071l47.728 29.857 47.727-24.428 30.682 32.571s30.683 29.856 59.091 27.142 96.591 24.428 96.591 24.428l70.455 57s115.91-40.713 137.5-78.713c21.591-37.999 60.954-55.31 60.954-55.31s23.137 20.025 35.637 20.025 79.137 33.476 79.137 33.476 42.454 42.523 45.863 45.236c3.409 2.714 92.046 24.428 113.64 17.643s72.727-50.212 72.727-50.212l67.046-13.572 54.546 27.142 95.454-42.068 55.682-31.214s51.138 42.069 54.546 42.069 38.636 50.213 54.545 43.429c15.909-6.785 61.363-20.357 61.363-20.357l5.137 319.04-1969.3-30.576-7.409-232.83 21.59-118.07z" fill="#678693"/>
	<path d="m1906.6 282.65c-10.229 0-162.5-21.221-172.73-34.052-10.227-12.831-31.816 16.779-65.908 19.74s-46.592 9.87-46.592 9.87l-94.317 1.974s-12.499 8.39-26.136 9.376c-13.637 0.987-80.683 0.494-80.683 0.494s-77.272-11.351-92.046-16.779c-14.772-5.429-30.682 1.48-30.682 1.48l-47.727 10.857-47.728-8.883-30.682 11.844s-30.683 10.857-59.091 9.87c-28.409-0.987-96.592 8.883-96.592 8.883l-70.454 20.728s-115.91-14.806-137.5-28.623c-21.591-13.818-60.954-20.113-60.954-20.113s-23.137 7.281-35.637 7.281-79.134 12.174-79.134 12.174-42.454 15.463-45.863 16.449c-3.409 0.987-92.046 8.883-113.64 6.416-21.591-2.468-72.727-18.26-72.727-18.26l-67.046-4.935-54.546 9.87-95.454-15.299-55.682-11.351s-51.138 15.299-54.546 15.299-38.636 18.259-54.545 15.792c-15.909-2.468-61.363-7.402-61.363-7.402l-5.137 116.02 1969.3-11.117 7.408-84.665-21.588-42.934z" fill="#466A77"/>
	<path d="m-15.092 386.37s18.182-5.682 48.864-3.409 142.05 2.273 186.36 0 184.09 7.954 205.68 4.545 236.36 0 236.36 0 78.409 1e-3 100 1.137 148.86 0 148.86 0l82.955 6.818 98.863-1.137 27.272-7.954 85.228 3.408 102.27 6.818 117.05-7.954 68.182 5.682 123.86-4.546 138.64 2.273 105.68 1.136 70.455-7.957-6.818 37.5-1921.6 6.818-18.182-43.178z" fill="#A8A28A"/>
</svg>
