<?xml version="1.0" encoding="UTF-8"?>
<svg enable-background="new 0 0 162.3 259.3" version="1.1" viewBox="0 0 162.3 259.3" xml:space="preserve" xmlns="http://www.w3.org/2000/svg">
<path d="m108.2 22.8c0-6.9-11.9-12.5-26.7-12.5h-0.3c-14.6 0.1-26.3 5.7-26.3 12.5s11.8 12.4 26.3 12.5h0.3c14.7 0 26.7-5.6 26.7-12.5z" fill="none"/>
<path d="M81.2,130H41.1c-4.8,16.6-10.2,34.2-15.5,51h55.6V130z" fill="#F21C1C"/>
<path d="M81.2,35.3c-14.6-0.1-26.3-5.6-26.3-12.5c0-6.8,11.8-12.4,26.3-12.5V0l-13,0.8  C39.6,2.3,43.2,38,43.2,38s19.5-4.6,12,36.5c-0.8,4.2-1.8,9.1-3.1,14.5h29.1V35.3z" fill="#F21C1C"/>
<path d="M12.4,222C5.2,244.1,0,259.3,0,259.3l81.2-0.3v-37H12.4z" fill="#F21C1C"/>
<path d="m81.2 181h55.5c-5.3-16.8-10.7-34.4-15.5-51h-40v51z" fill="#F21C1C"/>
<path d="m81.5 10.3c14.7 0 26.7 5.6 26.7 12.5s-11.9 12.5-26.7 12.5h-0.3v53.7h29c-1.3-5.4-2.3-10.3-3.1-14.5-7.6-41.1 11.9-36.5 11.9-36.5s3.6-35.7-25-37.2l-12.8-0.8v10.3h0.3z" fill="#F21C1C"/>
<path d="m81.2 259l81.1 0.3s-5.2-15.2-12.4-37.3h-68.7v37z" fill="#F21C1C"/>
<path d="M81.2,89H52.1c-2.8,11.8-6.7,25.9-11,41h40.1V89z" fill="#fff"/>
<path d="m81.2 130h40c-4.4-15.1-8.2-29.2-11-41h-29v41z" fill="#fff"/>
<path d="M81.2,181H25.6c-4.7,14.8-9.2,28.9-13.2,41h68.8V181z" fill="#fff"/>
<path d="M81.2,181v41h68.7c-4-12.1-8.5-26.2-13.2-41H81.2z" fill="#fff"/>
</svg>
