<?xml version="1.0" encoding="UTF-8"?>
<!DOCTYPE svg  PUBLIC '-//W3C//DTD SVG 1.1//EN'  'http://www.w3.org/Graphics/SVG/1.1/DTD/svg11.dtd'>
<svg width="1920px" height="218.77px" enable-background="new 0 0 1920 218.769" version="1.1" viewBox="0 0 1920 218.769" xml:space="preserve" xmlns="http://www.w3.org/2000/svg">
	<path d="m-17.955 162c10.228 0 162.5 30.684 172.73 49.234 10.227 18.553 31.817-24.26 65.909-28.542 34.091-4.281 46.591-14.271 46.591-14.271l94.318-2.854s12.5-12.13 26.136-13.557 80.682-0.714 80.682-0.714 77.272 16.412 92.045 24.261 30.682-2.141 30.682-2.141l47.728-15.698 47.727 12.844 30.682-17.125s30.683-15.698 59.091-14.271 96.591-12.844 96.591-12.844l70.455-29.97s115.91 21.406 137.5 41.386 60.954 29.082 60.954 29.082 23.137-10.528 35.637-10.528 79.137-17.602 79.137-17.602 42.454-22.358 45.863-23.785 92.046-12.843 113.64-9.275 72.727 26.4 72.727 26.4l67.046 7.136 54.546-14.271 95.454 22.119 55.682 16.411s51.138-22.119 54.546-22.119 38.636-26.401 54.545-22.834c15.909 3.568 61.363 10.704 61.363 10.704l5.137-167.75-1969.3 16.077-7.409 122.42 21.59 62.078z" fill="#848E96"/>
	<path d="m1906.6 68.543c-10.229 0-162.5 11.158-172.73 17.904-10.227 6.746-31.816-8.822-65.908-10.379s-46.592-5.189-46.592-5.189l-94.317-1.038s-12.499-4.411-26.136-4.93-80.683-0.26-80.683-0.26-77.272 5.968-92.046 8.822c-14.772 2.854-30.682-0.778-30.682-0.778l-47.727-5.709-47.728 4.671-30.682-6.228s-30.683-5.708-59.091-5.189c-28.409 0.519-96.592-4.67-96.592-4.67l-70.454-10.898s-115.91 7.785-137.5 15.049c-21.591 7.265-60.954 10.576-60.954 10.576s-23.137-3.828-35.637-3.828-79.134-6.401-79.134-6.401-42.454-8.13-45.863-8.648c-3.409-0.52-92.046-4.67-113.64-3.374-21.591 1.297-72.727 9.6-72.727 9.6l-67.046 2.595-54.546-5.19-95.454 8.044-55.682 5.968s-51.138-8.044-54.546-8.044-38.636-9.6-54.545-8.303-61.363 3.892-61.363 3.892l-5.137-60.999 1969.3 5.845 7.408 44.515-21.588 22.574z" fill="#5E7082"/>
	<path d="m-15.092 14.011s18.182 2.987 48.864 1.792 142.05-1.195 186.36 0 184.09-4.182 205.68-2.39 236.36 0 236.36 0 78.409 0 100-0.598 148.86 0 148.86 0l82.955-3.585 98.863 0.598 27.272 4.182 85.228-1.792 102.27-3.585 117.05 4.182 68.182-2.987 123.86 2.39 138.64-1.195 105.68-0.597 70.455 4.184-6.818-19.717-1921.6-3.584-18.182 22.702z" fill="#A5A4A9"/>
</svg>
