<?xml version="1.0" encoding="UTF-8"?>
<!DOCTYPE svg  PUBLIC '-//W3C//DTD SVG 1.1//EN'  'http://www.w3.org/Graphics/SVG/1.1/DTD/svg11.dtd'>
<svg width="216.03px" height="156.67px" enable-background="new 0 0 216.03 156.669" version="1.1" viewBox="0 0 216.03 156.669" xml:space="preserve" xmlns="http://www.w3.org/2000/svg">
<g clip-rule="evenodd" fill="#99916D" fill-rule="evenodd" stroke="#99916D" stroke-miterlimit="10" stroke-width=".5">
	<path d="m216.02 149.9c-0.521-0.138-0.36-0.309-0.451-0.465-0.514-0.883-1.315-1.751-2.595-2.597-0.174 0.058-0.423 0.076-0.726 0.064-2.479-0.089-4.944-0.118-7.472-0.054-6.232 0.159-11.639 0.695-16.19 1.631-2.789 0.574-4.935 1.254-6.365 2.033-1.919 1.045-2.688 2.12-1.824 3.245 0.324 0.422 0.958 0.824 1.317 1.242 1.313 0.154 2.633 0.095 3.937-1e-3 2.041-0.149 3.763-0.419 5.402-0.715 3.067-0.552 5.695-1.198 8.213-1.866 0.248-0.065 0.502-0.131 0.948-0.248 0.243 0.47 0.457 0.88 0.67 1.291 0.333 0.643 0.761 1.282 1.498 1.909 0.568 0.482 1.284 0.953 3.077 1.299h1.44c2.292-0.264 3.645-0.71 4.77-1.194 1.933-0.832 2.969-1.724 3.655-2.642 0.26-0.347 0.188-0.704 0.695-1.044 1e-3 -0.628 1e-3 -1.257 1e-3 -1.888z"/>
	<path d="m2.937 146.91c-1.357 0.906-2.15 1.838-2.637 2.782-0.037 0.072 0.129 0.161-0.285 0.21v2.048c0.375 0.042 0.237 0.121 0.269 0.186 0.268 0.529 0.559 1.061 1.192 1.575 1.373 1.117 2.797 2.232 7.419 2.961h1.2c1.408-0.127 2.078-0.393 2.602-0.679 1.241-0.681 1.749-1.397 2.187-2.117 0.331-0.543 0.585-1.088 0.876-1.637 0.528 2e-3 0.629 0.091 0.834 0.146 2.629 0.694 5.348 1.37 8.57 1.939 1.875 0.33 3.837 0.632 6.264 0.741 0.993 0.045 1.977 0.052 2.897-0.065-4e-3 -0.087 0.072-0.171 0.194-0.256 1.336-0.932 1.818-1.874 1.056-2.851-1.207-1.548-4.568-2.819-10.142-3.785-5.047-0.875-10.928-1.305-17.4-1.295-1.701 2e-3 -3.398 0.063-5.096 0.097z"/>
	<path d="m152.98 134.09c2.279 0.438 4.474 0.893 6.287 1.429 0.364 0.106 0.702 0.133 1.291 0.042 9.25-1.411 14.859-3.337 17.001-5.749 0.479-0.54 0.646-1.088 0.555-1.639 0.654 0.139 0.937 0.32 1.201 0.503 0.719 0.492 0.696 0.998 0.326 1.5-1.09 1.479-4.042 2.779-8.105 3.97-0.232 0.067-0.593 0.12-0.597 0.219-1.481 0.214-2.402 0.552-3.73 0.804-1.631 0.312-3.296 0.604-5.134 0.851-0.691 0.093-0.834 0.179-0.296 0.326 0.652 0.18 1.056 0.397 1.308 0.614 0.332 0.284 1.218 0.34 2.302 0.349 9.166 0.076 17.494-0.444 24.813-1.676 4.522-0.761 8.011-1.709 10.751-2.8 2.401-0.955 3.974-1.973 4.974-3.034 0.067-0.071 0.051-0.144 0.491-0.15 0.448 0.271 0.359 0.553 0.242 0.827-0.56 1.329-2.932 2.516-6.233 3.615-5.306 1.768-12.509 2.939-22.212 3.304-0.91 0.034-1.892 2e-3 -2.725 0.122-0.525 0.101-1.063 7e-3 -1.595 5e-3 -2.99-0.01-5.984 0.021-8.967-0.054-0.805-0.02-0.98 0.031-0.811 0.222 0.878 0.989 0.199 1.924-2.33 2.78-2.3 0.688-5.174 1.236-8.524 1.666-0.568 0.072-0.602 0.154-0.512 0.279 0.763 1.061 0.235 2.093-1.564 3.091-6.347 3.52-25.646 4.626-38.546 2.214-2.299-0.43-4.142-0.943-5.666-1.514-0.522 0.062-0.629 0.173-0.862 0.261-8.893 3.333-29.406 3.678-40.201 0.659-5.246-1.467-6.754-3.137-4.979-4.951 0.184-0.188 0.11-0.297-0.709-0.403-1.098-0.14-2.139-0.309-3.113-0.488-1.399-0.259-2.715-0.539-4.066-0.811-0.338-0.211-1.085-0.362-1.615-0.546-1.66-0.574-2.45-1.204-2.678-1.873-6e-3 -0.018-2e-3 -0.036 4e-3 -0.054 0.168-0.48 0.167-0.489-2.087-0.478-1.829 0.01-3.669-0.051-5.488 0.04-0.102 5e-3 -0.249-0.033-0.375-0.051-0.229-0.067-0.581-0.045-0.881-0.053-6.524-0.16-12.385-0.668-17.357-1.616-6.525-1.245-10.689-2.807-12.716-4.643-0.603-0.545-0.856-1.1-0.188-1.656 0.537 0.426 1.061 0.853 1.613 1.277 1.77 1.362 4.749 2.579 8.989 3.654 5.366 1.36 12.036 2.24 20.018 2.642 2.595 0.13 5.243 0.203 7.925 0.196 0.585-2e-3 0.96-0.022 1.151-0.163 0.584-0.426 1.279-0.844 2.408-1.221 0.204-0.067 0.497-0.149-2e-3 -0.227-2.4-0.367-4.426-0.821-6.371-1.296-0.077-0.019-0.2-0.029-0.301-0.043-0.071-0.102-0.438-0.164-0.693-0.24-4.451-1.331-7.728-2.77-8.237-4.447-0.162-0.532 0.109-1.063 1.748-1.508-0.168 1.542 1.552 2.98 4.87 4.336 2.559 1.044 6.077 1.911 10.227 2.663 0.425 0.077 0.866 0.129 1.325 1e-3 2.488-0.693 5.695-1.21 8.913-1.724 0.207-0.032 0.365-0.065 0.379-0.123 1.049 1e-3 1.709-0.174 2.521-0.273 14.655-1.814 30.431-2.556 47.162-2.301 12.97 0.197 24.954 1.073 35.756 2.679 0.295 0.044 0.563 0.1 0.949 0.104 0.811 0.232 1.985 0.371 2.966 0.561zm-13.154 5.526c-7.675-1.173-18.375-1.027-25.329 0.33-8.848 1.728-8.478 4.665 0.791 6.285 11.188 1.955 28.307 0.832 32.188-2.11 0.48-0.364 0.709-0.735 0.708-1.116-0.182-1.435-2.988-2.569-8.358-3.389zm-70.568 0.725c-6.528 1.628-6.128 4.022 0.87 5.559 7.83 1.719 20.872 1.758 28.783 0.058 5.209-1.12 7.072-2.491 5.055-4.034-2.117-1.619-7.324-2.576-14.709-2.984-1.515-0.084-3.068-0.119-4.643-0.113-6.098 0.028-11.303 0.502-15.356 1.514z"/>
	<path d="m175.48 137.51c-0.525 0.101-1.063 7e-3 -1.595 5e-3 -2.99-0.01-5.984 0.021-8.967-0.054-0.805-0.02-0.98 0.031-0.811 0.222 0.878 0.989 0.199 1.924-2.33 2.78 4.078 0.042 8.133 0.11 12.101 0.347 5.463 0.326 9.47 1.023 11.827 2.156 0.711 0.342 1.331 0.693 2.062 1.033 0.352 0.163 0.325 0.3-1e-3 0.468-3.53 1.813-6.511 3.664-8.368 5.596-1.08 1.124-1.885 2.255-1.331 3.408 0.168 0.351 0.485 0.692 1.236 1.007 0.541 0.228 1.196 0.436 2.4 0.52-0.359-0.418-0.993-0.82-1.317-1.242-0.864-1.125-0.095-2.2 1.824-3.245 1.431-0.779 3.576-1.459 6.365-2.033 4.552-0.936 9.958-1.472 16.19-1.631 2.527-0.064 4.992-0.035 7.472 0.054 0.303 0.012 0.552-7e-3 0.726-0.064-1.766-1.295-4.128-2.53-7.769-3.632-0.558-0.17-1.153-0.345-1.904-0.468-1.436-0.234-2.205-0.552-2.963-0.893-2.678-1.203-6.342-2.236-11.264-3.046-3.768-0.618-7.979-1.017-12.594-1.216-0.346-0.016-0.706-0.017-0.989-0.072z"/>
	<path d="m53.039 140.47c-0.338-0.211-1.085-0.362-1.615-0.546-1.66-0.574-2.45-1.204-2.678-1.873-6e-3 -0.018-2e-3 -0.036 4e-3 -0.054 0.168-0.48 0.167-0.489-2.087-0.478-1.829 0.01-3.669-0.051-5.488 0.04-0.102 5e-3 -0.249-0.033-0.375-0.051-12.319 0.511-20.426 2.153-25.642 4.567-0.452 0.209-0.95 0.391-1.822 0.533-1.124 0.184-2.012 0.424-2.811 0.676-3.52 1.108-5.873 2.334-7.588 3.623 1.698-0.034 3.396-0.096 5.095-0.097 6.472-0.01 12.354 0.42 17.4 1.295 5.573 0.966 8.935 2.237 10.142 3.785 0.762 0.977 0.281 1.919-1.056 2.851-0.122 0.085-0.199 0.169-0.194 0.256 1.492-0.119 2.203-0.393 2.718-0.69 1.096-0.635 1.201-1.298 1.006-1.966-0.685-2.339-3.89-4.541-7.652-6.712-0.707-0.409-1.502-0.81-2.262-1.214-0.183-0.098-0.336-0.185-0.117-0.298 0.944-0.491 1.843-0.986 3.002-1.457 2.779-1.128 7.354-1.681 12.871-1.945 3.017-0.144 6.084-0.191 9.149-0.245z"/>
	<path d="m170.94 134.36c-1.481 0.214-2.402 0.552-3.73 0.804-1.631 0.312-3.296 0.604-5.134 0.851-0.691 0.093-0.834 0.179-0.296 0.326 0.652 0.18 1.056 0.397 1.308 0.614 0.332 0.284 1.218 0.34 2.302 0.349 9.166 0.076 17.494-0.444 24.813-1.676 4.522-0.761 8.011-1.709 10.751-2.8 2.401-0.955 3.974-1.973 4.974-3.034 0.067-0.071 0.051-0.144 0.491-0.15-0.547-1.128-5.229-1.615-9.537-0.992-1.607 0.231-2.745 0.555-3.66 0.919-1.35 0.537-2.294 1.113-3.37 1.677-0.092 0.048-0.193 0.096-0.272 0.145-2.9 1.809-8.979 2.71-17.455 2.928-0.398 9e-3 -0.791 0.026-1.185 0.039z"/>
	<path d="m9.659 129.54c0.537 0.426 1.061 0.853 1.613 1.277 1.77 1.362 4.749 2.579 8.989 3.654 5.366 1.36 12.036 2.24 20.018 2.642 2.595 0.13 5.243 0.203 7.925 0.196 0.585-2e-3 0.96-0.022 1.151-0.163 0.584-0.426 1.279-0.844 2.408-1.221 0.204-0.067 0.497-0.149-2e-3 -0.227-2.4-0.367-4.426-0.821-6.371-1.296-0.077-0.019-0.2-0.029-0.301-0.043-2.455-0.075-4.881-0.176-7.235-0.354-4.358-0.328-7.621-0.931-9.748-1.828-1.29-0.544-2.277-1.115-3.351-1.68-0.707-0.371-1.427-0.74-2.388-1.084-0.844-0.302-1.877-0.565-3.235-0.763-4.158-0.6-8.557-0.188-9.473 0.89z"/>
	<path d="m150.01 133.53c0.813 0.231 1.986 0.371 2.967 0.561 2.279 0.438 4.474 0.893 6.287 1.429 0.364 0.106 0.702 0.133 1.291 0.042 9.25-1.411 14.859-3.337 17.001-5.749 0.479-0.54 0.646-1.088 0.555-1.639-1.525-0.451-3.721-0.606-6.252-0.438-2.339 0.155-3.99 0.5-5.286 0.938-1.313 0.441-2.192 0.93-3.101 1.415-0.923 0.493-1.823 0.988-2.925 1.464-2.118 0.916-5.365 1.553-9.775 1.904-0.26 0.022-0.508 0.049-0.762 0.073z"/>
	<path d="m37.907 128.16c-0.168 1.542 1.552 2.98 4.87 4.336 2.559 1.044 6.077 1.911 10.227 2.663 0.425 0.077 0.866 0.129 1.325 1e-3 2.488-0.693 5.695-1.21 8.913-1.724 0.207-0.032 0.365-0.065 0.379-0.123-4.482-0.472-7.334-1.261-9.204-2.245-1.162-0.611-2.33-1.224-3.555-1.83-0.827-0.408-1.857-0.794-3.421-1.093-1.813-0.347-3.847-0.565-6.346-0.45-1.336 0.062-2.442 0.207-3.188 0.465z"/>
	<path d="m147.47 144.12c-3.882 2.942-21 4.065-32.188 2.11-9.269-1.62-9.639-4.558-0.791-6.285 6.954-1.357 17.654-1.503 25.329-0.33 5.37 0.819 8.176 1.954 8.358 3.389 1e-3 0.381-0.228 0.752-0.708 1.116zm-16.585-2.347c-2.346-0.233-4.55-0.125-6.457 0.242-2.769 0.533-3.289 1.499-1.219 2.179 2.31 0.757 6.87 0.837 9.684 0.167 1.358-0.325 1.969-0.714 2.012-1.207-0.151-0.582-1.244-1.105-4.02-1.381z"/>
	<path d="m89.253 138.94c7.385 0.408 12.592 1.365 14.709 2.984 2.018 1.543 0.154 2.914-5.055 4.034-7.911 1.7-20.953 1.661-28.783-0.058-6.998-1.536-7.398-3.931-0.87-5.559 4.053-1.012 9.258-1.486 15.356-1.516 1.575-5e-3 3.128 0.031 4.643 0.115zm-1.414 3.039c-3.145-0.574-7.594-0.346-9.469 0.481-1.576 0.696-0.769 1.577 1.932 2.049 1.951 0.342 4.143 0.423 6.398 0.178 2.627-0.285 3.692-0.793 3.825-1.376-0.053-0.553-0.852-0.997-2.686-1.332z"/>
	<path d="m127.65 136.17c-23.656-5.192-43.625 0-43.625 0"/>
	<path d="m86.878 136.17s13.051-3.419 28.563-1.622c14.38 1.667 10.192 1.618 10.192 1.618"/>
		<ellipse cx="84.149" cy="143.39" rx="15.375" ry="3.362"/>
		<ellipse cx="126.4" cy="143.12" rx="15.375" ry="3.361"/>
</g>
<g clip-rule="evenodd" fill-rule="evenodd">
	<path d="m216.02 30.986c-0.521 0.629-0.36 1.414-0.451 2.129-0.514 4.038-1.315 8.009-2.595 11.877-0.174-0.266-0.423-0.346-0.726-0.296-2.479 0.408-4.944 0.542-7.472 0.247-6.232-0.729-11.639-3.179-16.19-7.46-2.789-2.623-4.935-5.734-6.365-9.3-1.919-4.779-2.688-9.695-1.824-14.838 0.324-1.93 0.958-3.773 1.317-5.686 1.313-0.704 2.633-0.433 3.937 4e-3 2.041 0.686 3.763 1.918 5.402 3.269 3.067 2.527 5.695 5.48 8.213 8.539 0.248 0.302 0.502 0.6 0.948 1.132 0.243-2.146 0.457-4.025 0.67-5.904 0.333-2.938 0.761-5.862 1.498-8.729 0.568-2.212 1.284-4.36 3.077-5.944h1.44c2.292 1.207 3.645 3.246 4.77 5.462 1.933 3.808 2.969 7.889 3.655 12.081 0.26 1.589 0.188 3.225 0.695 4.777 1e-3 2.88 1e-3 5.76 1e-3 8.64z" fill="#EF504E"/>
	<path d="m2.937 44.674c-1.357-4.144-2.15-8.403-2.637-12.727-0.037-0.327 0.129-0.738-0.285-0.961v-9.36c0.375-0.191 0.237-0.558 0.269-0.851 0.268-2.425 0.559-4.851 1.192-7.208 1.372-5.109 2.796-10.206 7.419-13.541h1.2c1.408 0.583 2.078 1.796 2.602 3.107 1.241 3.108 1.749 6.389 2.187 9.678 0.331 2.487 0.585 4.983 0.876 7.49 0.528-0.013 0.629-0.418 0.834-0.666 2.629-3.177 5.348-6.268 8.57-8.869 1.873-1.512 3.836-2.89 6.262-3.392 0.993-0.206 1.977-0.233 2.897 0.299-4e-3 0.401 0.072 0.78 0.194 1.17 1.336 4.264 1.818 8.572 1.056 13.04-1.207 7.078-4.568 12.895-10.142 17.313-5.047 4.001-10.928 5.963-17.4 5.925-1.699-0.011-3.396-0.291-5.094-0.447z" fill="#EF504E"/>
	<path d="m150.01 105.88c-0.386 0.02-0.654 0.274-0.949 0.475-10.802 7.343-22.786 11.35-35.756 12.254-16.731 1.166-32.507-2.228-47.162-10.523-0.813-0.46-1.473-1.259-2.522-1.25-0.013-0.265-0.172-0.415-0.379-0.565-3.217-2.349-6.424-4.712-8.912-7.884-0.459-0.585-0.9-0.35-1.325 3e-3 -4.149 3.439-7.668 7.407-10.227 12.185-3.318 6.194-5.038 12.777-4.87 19.826-1.639-2.03-1.91-4.458-1.748-6.896 0.51-7.668 3.786-14.25 8.237-20.341 0.255-0.349 0.622-0.632 0.693-1.098 0.102-0.063 0.224-0.108 0.301-0.194 1.944-2.169 3.971-4.249 6.371-5.928 0.499-0.35 0.206-0.727 2e-3 -1.038-1.129-1.724-1.824-3.633-2.408-5.585-0.191-0.637-0.566-0.731-1.151-0.74-2.682-0.037-5.33 0.3-7.925 0.896-7.982 1.834-14.652 5.858-20.018 12.08-4.24 4.918-7.22 10.484-8.989 16.714-0.552 1.944-1.076 3.896-1.613 5.845-0.669-2.544-0.416-5.081 0.188-7.578 2.027-8.393 6.191-15.535 12.716-21.229 4.972-4.34 10.833-6.66 17.357-7.395 0.3-0.033 0.652 0.069 0.881-0.241 0.126-0.082 0.273-0.255 0.375-0.231 1.818 0.415 3.659 0.142 5.488 0.184 2.254 0.053 2.255 0.015 2.087-2.188-6e-3 -0.08-0.01-0.16-4e-3 -0.24 0.228-3.063 1.018-5.945 2.678-8.569 0.53-0.838 1.277-1.535 1.615-2.495 1.352-1.241 2.667-2.523 4.066-3.708 0.974-0.824 2.015-1.593 3.113-2.236 0.819-0.48 0.893-0.987 0.709-1.845-1.774-8.294-0.266-15.935 4.979-22.643 10.795-13.807 31.309-12.228 40.201 3.018 0.234 0.401 0.34 0.906 0.863 1.192 1.524-2.612 3.367-4.959 5.666-6.926 12.899-11.035 32.199-5.97 38.546 10.126 1.8 4.563 2.327 9.284 1.564 14.134-0.09 0.574-0.057 0.948 0.512 1.281 3.351 1.964 6.225 4.474 8.524 7.619 2.529 3.917 3.208 8.19 2.33 12.715-0.17 0.872 6e-3 1.104 0.811 1.014 2.982-0.34 5.977-0.199 8.967-0.243 0.532-8e-3 1.069-0.437 1.595 0.022 0.833 0.546 1.814 0.401 2.725 0.559 9.703 1.665 16.906 7.023 22.212 15.107 3.302 5.032 5.674 10.458 6.233 16.535 0.117 1.259 0.206 2.548-0.242 3.785-0.44-0.032-0.424-0.359-0.491-0.685-1-4.861-2.572-9.512-4.974-13.882-2.74-4.988-6.229-9.324-10.751-12.805-7.319-5.635-15.647-8.013-24.813-7.663-1.084 0.041-1.97 0.293-2.302 1.595-0.252 0.986-0.655 1.986-1.308 2.806-0.538 0.677-0.396 1.068 0.296 1.492 1.838 1.126 3.503 2.47 5.134 3.889 1.328 1.156 2.249 2.699 3.73 3.678 4e-3 0.449 0.364 0.691 0.597 1.002 4.063 5.445 7.016 11.393 8.105 18.155 0.37 2.296 0.393 4.608-0.326 6.865-0.265 0.831-0.547 1.663-1.201 2.294 0.092-2.517-0.076-5.024-0.555-7.489-2.142-11.036-7.751-19.843-17.001-26.3-0.589-0.411-0.927-0.295-1.291 0.196-1.813 2.45-4.008 4.525-6.287 6.534-0.981 0.861-2.155 1.502-2.967 2.558zm-1.828-43.341c1e-3 -1.741-0.228-3.436-0.708-5.1-3.882-13.46-21-18.595-32.188-9.653-9.269 7.408-9.639 20.845-0.791 28.744 6.954 6.209 17.654 6.878 25.329 1.514 5.369-3.754 8.175-8.938 8.358-15.505zm-63.571 19.119c1.575 0.03 3.128-0.134 4.642-0.517 7.385-1.868 12.592-6.242 14.709-13.651 2.017-7.058 0.155-13.326-5.055-18.449-7.911-7.779-20.953-7.602-28.784 0.262-6.998 7.026-7.398 17.975-0.87 25.425 4.055 4.626 9.26 6.798 15.358 6.93z" fill="#EF504E"/>
	<path d="m175.48 87.645c-0.525-0.459-1.063-0.03-1.595-0.022-2.99 0.044-5.984-0.097-8.967 0.243-0.805 0.091-0.98-0.142-0.811-1.014 0.878-4.524 0.199-8.798-2.33-12.715 4.078-0.19 8.133-0.505 12.101-1.587 5.463-1.49 9.47-4.68 11.827-9.861 0.711-1.563 1.331-3.169 2.062-4.723 0.352-0.75 0.325-1.375-1e-3 -2.142-3.53-8.288-6.511-16.762-8.368-25.595-1.08-5.135-1.885-10.307-1.331-15.588 0.168-1.6 0.485-3.167 1.236-4.605 0.541-1.037 1.196-1.993 2.4-2.375-0.359 1.913-0.993 3.756-1.317 5.686-0.864 5.143-0.095 10.059 1.824 14.838 1.431 3.565 3.576 6.677 6.365 9.3 4.552 4.281 9.958 6.731 16.19 7.46 2.527 0.296 4.992 0.161 7.472-0.247 0.303-0.05 0.552 0.03 0.726 0.296-1.766 5.923-4.128 11.57-7.769 16.613-0.558 0.772-1.153 1.579-1.904 2.139-1.436 1.072-2.205 2.524-2.963 4.081-2.678 5.501-6.342 10.229-11.264 13.929-3.768 2.832-7.979 4.652-12.594 5.563-0.346 0.067-0.706 0.069-0.989 0.326z" fill="#C63838"/>
	<path d="m53.039 74.124c-0.338 0.96-1.085 1.657-1.615 2.495-1.66 2.624-2.45 5.506-2.678 8.569-6e-3 0.08-2e-3 0.16 4e-3 0.24 0.168 2.203 0.167 2.241-2.087 2.188-1.829-0.042-3.669 0.231-5.488-0.184-0.102-0.023-0.249 0.149-0.375 0.231-12.319-2.333-20.426-9.85-25.642-20.891-0.452-0.957-0.95-1.785-1.822-2.437-1.124-0.839-2.012-1.94-2.811-3.091-3.52-5.069-5.873-10.676-7.588-16.572 1.698 0.156 3.396 0.436 5.095 0.446 6.472 0.039 12.354-1.923 17.4-5.925 5.573-4.419 8.935-10.235 10.142-17.313 0.762-4.467 0.281-8.775-1.056-13.04-0.122-0.39-0.199-0.769-0.194-1.17 1.492 0.549 2.203 1.798 2.718 3.161 1.096 2.903 1.201 5.938 1.006 8.987-0.685 10.698-3.89 20.772-7.652 30.704-0.707 1.867-1.502 3.702-2.262 5.549-0.183 0.445-0.336 0.842-0.117 1.364 0.944 2.248 1.843 4.513 3.002 6.664 2.779 5.158 7.354 7.689 12.871 8.896 3.017 0.662 6.084 0.88 9.149 1.129z" fill="#C63838"/>
	<path d="m170.94 102.06c-1.481-0.979-2.402-2.521-3.73-3.678-1.631-1.419-3.296-2.763-5.134-3.889-0.691-0.424-0.834-0.815-0.296-1.492 0.652-0.819 1.056-1.819 1.308-2.806 0.332-1.302 1.218-1.554 2.302-1.595 9.166-0.35 17.494 2.028 24.813 7.663 4.522 3.48 8.011 7.816 10.751 12.805 2.401 4.37 3.974 9.021 4.974 13.882 0.067 0.325 0.051 0.652 0.491 0.685-0.547 5.157-5.229 7.389-9.537 4.54-1.607-1.063-2.745-2.538-3.66-4.205-1.35-2.456-2.294-5.091-3.37-7.668-0.092-0.221-0.193-0.438-0.272-0.664-2.9-8.269-8.979-12.392-17.455-13.392-0.398-0.047-0.791-0.124-1.185-0.186z" fill="#C63838"/>
	<path d="m9.659 124.11c0.537-1.948 1.061-3.9 1.613-5.845 1.77-6.229 4.749-11.796 8.989-16.714 5.366-6.222 12.036-10.246 20.018-12.08 2.595-0.596 5.243-0.933 7.925-0.896 0.585 9e-3 0.96 0.104 1.151 0.74 0.584 1.952 1.279 3.861 2.408 5.585 0.204 0.312 0.497 0.688-2e-3 1.038-2.4 1.679-4.426 3.759-6.371 5.928-0.077 0.086-0.2 0.131-0.301 0.194-2.455 0.344-4.881 0.805-7.235 1.617-4.358 1.504-7.621 4.262-9.748 8.363-1.29 2.486-2.277 5.103-3.351 7.682-0.707 1.696-1.427 3.386-2.388 4.959-0.844 1.38-1.877 2.585-3.235 3.485-4.158 2.761-8.557 0.876-9.473-4.056z" fill="#C63838"/>
	<path d="m150.01 105.88c0.813-1.056 1.986-1.697 2.967-2.562 2.279-2.009 4.474-4.084 6.287-6.534 0.364-0.491 0.702-0.607 1.291-0.196 9.25 6.457 14.859 15.264 17.001 26.3 0.479 2.465 0.646 4.973 0.555 7.489-1.525 2.063-3.721 2.775-6.252 2.005-2.339-0.712-3.99-2.288-5.286-4.286-1.313-2.023-2.192-4.257-3.101-6.476-0.923-2.255-1.823-4.518-2.925-6.695-2.118-4.188-5.365-7.1-9.775-8.711-0.26-0.095-0.508-0.222-0.762-0.334z" fill="#C63838"/>
	<path d="m37.907 130.4c-0.168-7.049 1.552-13.632 4.87-19.826 2.559-4.777 6.077-8.745 10.227-12.185 0.425-0.353 0.866-0.588 1.325-3e-3 2.488 3.172 5.695 5.535 8.912 7.884 0.207 0.15 0.366 0.301 0.379 0.565-4.482 2.154-7.333 5.765-9.203 10.267-1.162 2.799-2.33 5.595-3.555 8.366-0.827 1.869-1.857 3.635-3.421 5.002-1.813 1.583-3.847 2.585-6.346 2.06-1.336-0.281-2.442-0.947-3.188-2.13z" fill="#C63838"/>
	<path d="m148.18 62.534c-0.183 6.567-2.988 11.751-8.358 15.504-7.675 5.364-18.375 4.695-25.329-1.514-8.848-7.898-8.478-21.335 0.791-28.744 11.188-8.942 28.307-3.807 32.188 9.653 0.48 1.665 0.709 3.36 0.708 5.101zm-13.274-0.686c-0.043-2.254-0.653-4.035-2.012-5.516-2.813-3.067-7.374-2.703-9.684 0.761-2.07 3.104-1.55 7.525 1.219 9.963 1.907 1.681 4.111 2.176 6.457 1.109 2.777-1.261 3.87-3.653 4.02-6.317z" fill="#FEFDFD"/>
	<path d="m84.61 81.653c-6.099-0.132-11.304-2.305-15.356-6.93-6.529-7.45-6.128-18.399 0.87-25.425 7.831-7.863 20.873-8.041 28.784-0.262 5.209 5.123 7.072 11.391 5.055 18.449-2.117 7.409-7.324 11.783-14.709 13.651-1.516 0.384-3.069 0.548-4.644 0.517zm5.915-20.512c-0.133-2.661-1.199-4.986-3.825-6.29-2.256-1.12-4.447-0.754-6.398 0.809-2.701 2.164-3.509 6.188-1.932 9.372 1.875 3.785 6.325 4.833 9.468 2.205 1.835-1.534 2.634-3.564 2.687-6.096z" fill="#FEFDFD"/>
	<circle cx="127.4" cy="61.411" r="12.625" fill="#fff"/>
	<path d="m133.91 61.848c-0.15 2.664-1.243 5.057-4.02 6.318-2.346 1.066-4.55 0.571-6.457-1.109-2.769-2.438-3.289-6.86-1.219-9.963 2.31-3.464 6.87-3.829 9.684-0.761 1.359 1.48 1.969 3.261 2.012 5.515zm-5.508-2.449c-0.016-1.723-1.331-3.134-2.941-3.156-1.613-0.021-2.965 1.39-2.977 3.108-0.011 1.765 1.362 3.227 3.016 3.211 1.629-0.016 2.918-1.42 2.902-3.163z" fill="#050505"/>
	<circle cx="84.399" cy="61.411" r="12.625" fill="#fff"/>
	<path d="m90.525 61.141c-0.053 2.533-0.853 4.562-2.687 6.096-3.144 2.628-7.594 1.58-9.468-2.205-1.577-3.184-0.769-7.208 1.932-9.372 1.951-1.563 4.142-1.929 6.398-0.809 2.627 1.303 3.693 3.628 3.825 6.29zm-1.527-1.709c0.035-1.701-1.293-3.159-2.902-3.188-1.599-0.029-2.977 1.368-3.033 3.075-0.057 1.727 1.21 3.178 2.831 3.243 1.646 0.064 3.068-1.37 3.104-3.13z" fill="#050505"/>
	<path d="m128.4 59.399c0.016 1.743-1.273 3.147-2.902 3.163-1.653 0.016-3.026-1.447-3.016-3.211 0.012-1.718 1.363-3.129 2.977-3.108 1.61 0.022 2.926 1.433 2.941 3.156z" fill="#FEFDFD"/>
	<path d="m88.998 59.432c-0.036 1.761-1.458 3.195-3.104 3.129-1.621-0.065-2.888-1.517-2.831-3.243 0.056-1.707 1.434-3.104 3.033-3.075 1.609 0.029 2.937 1.488 2.902 3.189z" fill="#FEFDFD"/>
	<path d="m127.65 93.786c-23.657 23.75-43.625 0-43.625 0" fill="#AD3D3D"/>
	<path d="m86.878 93.786s13.051 15.635 28.563 7.416c14.38-7.619 10.192-7.4 10.192-7.4" fill="#301111"/>
</g>
</svg>
