<?xml version="1.0" encoding="UTF-8"?>
<!DOCTYPE svg  PUBLIC '-//W3C//DTD SVG 1.1//EN'  'http://www.w3.org/Graphics/SVG/1.1/DTD/svg11.dtd'>
<svg width="313.53px" height="420.02px" enable-background="new 623.762 616.903 313.53 420.016" version="1.1" viewBox="623.762 616.903 313.53 420.016" xml:space="preserve" xmlns="http://www.w3.org/2000/svg">
	<path d="m706.57 1004.7c4.344-1.807 6.819-6.174 11.144-8.054 3.185-1.384 6.263-3.014 9.388-4.534 6.016-0.972 12.052-1.65 18.161-1.139 1.329 0.073 2.692-0.025 3.976 0.246 13.225 2.809 23.49 9.883 30.247 21.646 1.528 2.663 2.367 2.896 4.534 0.728 3.781-3.783 8.729-5.452 13.869-6.285 10.976-1.775 26.431 4.925 28.936 19.384 1.25 7.215-1.004 10.227-8.082 10.227h-184.93c-10.898 0-11.917-1.532-7.857-11.893 0.36-0.92 0.774-1.834 1.284-2.679 6.757-11.197 20.947-14.529 32.155-7.536 1.938 1.211 3.442 2.95 5.945 0.412 10.574-10.721 23.172-13.613 37.443-8.867 2.043 0.68 3.166 0.374 3.783-1.656h4e-3z" fill="#D7CAB9"/>
	<path d="m727.1 992.09c-1.553-16.579-1.42-33.22-0.885-49.807 0.989-30.763 3.247-61.463 10.959-91.41 6.241-24.238 15.174-47.348 30.655-67.479 13.596-17.677 30.379-31.391 50.242-41.414 2.213 2.884 4.568 5.574 8.401 6.301-0.533 0.389-1.028 0.851-1.606 1.156-28.613 15.074-48.083 38.257-60.272 67.908-13.602 33.083-17.806 67.971-19.416 103.27-1.068 23.429-0.404 46.891 0.083 70.337-6.11-0.511-12.145 0.167-18.161 1.137z" fill="#AA886D"/>
	<path d="m727.1 992.09c-3.125 1.521-6.203 3.151-9.388 4.535-4.324 1.879-6.801 6.247-11.146 8.054-1.057-29.444-0.173-58.792 3.391-88.083 3.234-26.599 8.713-52.62 18.073-77.749 14.615-39.227 37.02-72.396 73.853-94.231 5.017-2.244 9.556-5.544 15.022-6.791 0.39 1.385 0.778 2.771 1.166 4.156-19.864 10.023-36.646 23.737-50.241 41.415-15.482 20.13-24.414 43.239-30.656 67.478-7.712 29.947-9.969 60.647-10.959 91.41-0.535 16.586-0.668 33.227 0.885 49.806z" fill="#B99779"/>
	<path d="m835.81 724.99c-2.238-0.639-4.477-1.275-6.717-1.912-5.212-12.681-14.085-22.399-25.151-30.097-16.187-11.261-34.338-16.441-53.97-18.241-15.076-1.384-29.695 0.667-44.458 2.374-0.543 0.063-1.016 0.736-1.522 1.124-2.011 0.705-4.043 0.729-6.484 0.538 0.572-0.794 0.773-1.262 1.127-1.538 24.438-19.267 51.96-29.546 83.296-27.007 20.088 1.628 36.203 10.771 45.892 29.157 7.524 14.282 8.687 29.811 7.987 45.602z" fill="#5BAE83"/>
	<path d="m918.96 866.94c-0.4 0.074-0.801 0.149-1.204 0.227-0.215-3.069-0.429-6.141-0.644-9.212 2.123-7.143 1.327-14.523 0.721-21.638-1.24-14.516-4.096-28.811-9.9-42.338-10.126-23.597-25.721-41.625-50.82-49.995 1.23-2.441 2.229-4.943 2.041-7.755 5.977-0.368 11.957-1.119 17.928-1.043 30.003 0.385 51.505 17.161 57.675 46.09 6.512 30.539 0.176 59.082-15.797 85.664z" fill="#5BAE84"/>
	<path d="m816.86 735.04c-4.232-0.676-8.45-1.797-12.703-1.947-13.661-0.481-26.655 2.577-38.777 8.833-11.712 6.045-22.131 13.946-31.206 23.521-6.04 6.372-11.357 13.354-16.394 20.538-0.527 0.752-0.533 1.867-0.781 2.814-1.37 1.784-2.74 3.569-4.243 5.527-0.351-0.715-0.576-0.975-0.589-1.243-0.04-0.83-0.074-1.674 0.025-2.496 2.894-24.141 11.485-45.893 28.636-63.413 24.962-25.5 54.618-22.679 78.661 0.098-0.594 2.685-2.534 4.914-2.629 7.768z" fill="#5BAE84"/>
	<path d="m825.12 866.99c2.566 0.021 3.054-2.348 4.188-3.828 5.045-6.576 9.299-13.651 12.77-21.188 5.428-9.397 9.012-19.552 10.735-30.169 2.466-15.186 2.567-30.358-3.894-44.854-0.803-1.799-1.344-3.772-2.978-5.094 3.37-1.952 6.668-3.979 8.146-7.887 5.26 2.503 8.86 7.309 13.946 10.054l-0.05-0.026c-0.053 1.35 1.001 2.018 1.766 2.862 12.282 13.576 15.415 29.241 10.629 46.699-4.165 15.191-12.96 27.588-24.112 38.274-10.1 9.679-21.266 18.005-34.813 22.489-0.152-0.143-0.306-0.284-0.458-0.426 1.375-2.301 2.75-4.604 4.125-6.906z" fill="#5BAE84"/>
	<path d="m855.9 727.36c-2.359-1.043-4.262-2.991-6.897-3.487 1.673-7.572 4.848-14.79 5.076-22.709 0.528-18.385-5.075-34.956-14.762-50.31-5.95-9.429-12.92-18.068-20.846-25.919-1.264-1.252-2.289-2.959-4.429-2.923-1.491-1.379-3.148-2.645-3.714-5.109 1.232 0.116 2.089 0.066 2.866 0.29 20.174 5.766 37.571 16.076 51.284 32.077 7.925 9.247 13.696 19.674 14.656 32.158 1.539 19.985-8.215 34.3-23.234 45.932z" fill="#5BAE83"/>
	<path d="m829.1 723.08c-1.879 0.416-3.757 0.832-5.636 1.252-4.866-3.743-9.586-7.709-14.656-11.158-3.148-2.142-5.686-4.221-4.708-8.819-3.487 3.02-3.479 3.006-6.713 1.245-4.815-2.622-9.558-5.396-14.489-7.777-3.633-1.756-7.145-3.278-6.182-8.813-2.242 4.307-4.916 4.206-8.372 2.288-2.435-1.352-5.22-2.173-7.94-2.878-3.193-0.827-5.017-2.791-5.74-6.291-1.511 3.688-1.507 3.672-4.521 2.917-4.184-1.048-8.376-2.064-12.564-3.104-11.027-2.734-22.343-2.86-33.578-3.703 0.504-0.388 0.978-1.062 1.521-1.124 14.763-1.707 29.382-3.757 44.458-2.374 19.632 1.8 37.783 6.98 53.97 18.241 11.065 7.699 19.938 17.416 25.15 30.098z" fill="#79BF9E"/>
	<path d="m917.12 857.95c-3.389-14.466-6.465-29.04-13.295-42.413-1.076-2.108 1.09-2.356 2.102-3.688-3.392-0.366-4.985-1.955-6.043-4.472-1.024-2.438-2.297-4.817-3.792-6.995-2.22-3.23-3.666-6.222 1.053-9.704-6.26 3.367-7.433-1.369-9.69-4.55-3.361-4.736-6.841-9.397-10.494-13.91-1.366-1.688-1.906-2.987-0.324-4.67 0.367-0.39 0.734-0.78 1.102-1.17-0.746-0.618-1.361-0.222-1.967 0.254-3.58 2.029-4.605-3.466-7.777-2.638l0.049 0.026c0.869-1.093 0.14-1.987-0.602-2.523-2.461-1.777-2.411-3.871-3e-3 -7.141-7.08 3.544-8.667-2.837-12.476-4.67-0.258-2.272-0.273-4.452 2.156-5.708 25.101 8.37 40.695 26.399 50.821 49.995 5.806 13.527 8.66 27.822 9.9 42.337 0.606 7.117 1.402 14.498-0.72 21.64zm-5.648-31.291l0.139-0.256-0.312 0.022 0.173 0.234z" fill="#78BF9E"/>
	<path d="m854.96 749.69c-0.288 1.427-0.576 2.854-0.866 4.281-1.478 3.907-4.776 5.935-8.146 7.887-2.556-0.015-5.11-0.028-7.668-0.042-4.366-2.389-8.034-5.302-8.422-10.813-0.145-2.045-1.392-2.894-3.391-2.722-3.832-0.726-6.188-3.417-8.401-6.301-0.388-1.386-0.777-2.771-1.166-4.156-0.011-0.93-0.021-1.858-0.034-2.786 0.093-2.854 2.034-5.083 2.623-7.771 1.722-0.438 2.908-1.606 3.979-2.938 1.878-0.42 3.756-0.836 5.635-1.253 2.238 0.638 4.476 1.274 6.715 1.913 2.651 3.031 4.47-0.027 6.587-0.901 2.202-0.072 4.402-0.144 6.603-0.217 2.637 0.494 4.539 2.442 6.9 3.481 1.272 2.889 3.343 5.485 3.251 8.872 0.188 2.812-0.811 5.314-2.041 7.756-2.431 1.258-2.416 3.439-2.158 5.71z" fill="#A26E46"/>
	<path d="m801.85 744.63c-2.771 0.33-5.478 0.492-7.354-2.428-1.091 3.717-1.074 3.78-4.026 4.568-11.372 3.033-22.245 7.347-32.703 12.714-2.099 1.077-4.147 2.052-6.582 1.382-0.197-0.188-0.533-0.566-0.575-0.536-0.635 0.459-0.133 0.66 0.234 0.886 0.261 1.357-0.411 2.187-1.526 2.808-11.987 6.675-22.382 15.431-32.32 24.779 0.248-0.946 0.254-2.063 0.781-2.814 5.037-7.185 10.354-14.166 16.394-20.538 9.075-9.575 19.494-17.477 31.206-23.521 12.122-6.256 25.116-9.314 38.777-8.833 4.252 0.15 8.471 1.271 12.704 1.946 0.013 0.928 0.023 1.857 0.034 2.786-5.468 1.246-10.007 4.546-15.044 6.801z" fill="#79BF9E"/>
	<path d="m842.73 720.64c0.316-3.293 1.771-6.262 0.487-9.987-0.958-2.779-1.852-7.065 2.581-9.156-1.474-0.923-3.883-0.327-3.649-2.872 0.723-7.836-5.729-15.649-0.088-23.856-3.698 1.258-4.553-0.969-5.154-3.991-0.58-2.909-1.687-5.713-2.576-8.56-4.54-14.522-11.825-27.663-20.287-40.206 2.14-0.036 3.165 1.671 4.429 2.923 7.927 7.851 14.897 16.49 20.846 25.92 9.687 15.353 15.29 31.924 14.762 50.309-0.229 7.918-3.403 15.136-5.076 22.71-2.2 0.073-4.401 0.145-6.603 0.217 0.11-1.152 0.219-2.301 0.328-3.451z" fill="#79BF9E"/>
	<path d="m845.94 761.86c1.634 1.321 2.175 3.295 2.978 5.095 6.462 14.495 6.359 29.668 3.894 44.854-1.724 10.617-5.308 20.771-10.735 30.169-1.032-0.326-2.063-0.652-3.096-0.979-2.785 0.031-3.822-0.921-3.04-3.97 1.854-7.229 3.649-14.521 4.08-21.99 0.218-3.757 0.825-6.558 6.505-6.371-8.557-3.264-5.05-9.413-5.016-14.07 0.034-4.713-3.178-10.463 3.419-14.449-4.019-0.178-4.51-2.643-4.803-5.543-0.434-4.281-1.218-8.526-1.854-12.786 2.558 0.012 5.113 0.026 7.668 0.04z" fill="#79BF9E"/>
	<path d="m842.08 841.98c-3.47 7.536-7.724 14.61-12.771 21.188-1.135 1.481-1.621 3.85-4.188 3.828 2.576-6.402 5.527-12.688 7.579-19.254 1.122-3.591 2.669-5.897 6.284-6.742 1.032 0.327 2.064 0.653 3.096 0.98z" fill="#7BC09F"/>
	<path d="m917.76 867.17c0.402-0.077 0.803-0.152 1.203-0.227-0.236 0.956-0.618 1.129-1.203 0.227z" fill="#78BF9E"/>
	<path d="m821.45 874.32c-0.323 0.431-0.675 0.611-1.107 0.132 0.218-0.184 0.436-0.369 0.652-0.554 0.154 0.142 0.307 0.284 0.455 0.422z" fill="#5BAE84"/>
	<path d="m854.96 749.69c3.809 1.834 5.396 8.215 12.476 4.671-2.408 3.27-2.458 5.363 3e-3 7.141 0.741 0.535 1.471 1.431 0.602 2.523-5.084-2.745-8.685-7.551-13.945-10.054 0.287-1.427 0.575-2.854 0.864-4.281z" fill="#FEFEFE"/>
	<path d="m876.64 767.55c-0.289-0.305-0.579-0.611-0.865-0.916 0.605-0.475 1.221-0.871 1.967-0.254-0.368 0.39-0.735 0.78-1.102 1.17z" fill="#FEFEFE"/>
	<polygon points="911.3 826.43 911.6 826.41 911.46 826.66" fill="#FEFEFE"/>
	<path d="m750.85 761.21c-0.367-0.226-0.869-0.427-0.234-0.886 0.043-0.03 0.378 0.348 0.575 0.536-1e-3 0-0.344 0.353-0.341 0.35z" fill="#FEFEFE"/>
</svg>
