<?xml version="1.0" encoding="utf-8"?>
<!-- Generator: Adobe Illustrator 16.0.0, SVG Export Plug-In . SVG Version: 6.00 Build 0)  -->
<!DOCTYPE svg PUBLIC "-//W3C//DTD SVG 1.1//EN" "http://www.w3.org/Graphics/SVG/1.1/DTD/svg11.dtd">
<svg version="1.1" id="Calque_1" xmlns="http://www.w3.org/2000/svg" xmlns:xlink="http://www.w3.org/1999/xlink" x="0px" y="0px"
	 width="1920px" height="241.091px" viewBox="0 0 1920 241.091" style="enable-background:new 0 0 1920 241.091;"
	 xml:space="preserve">
<path style="fill:#2E7189;" d="M-26.455,55.682c0,0,93.182-6.818,126.136-30.682s14.773-28.41,38.637-7.955
	s89.773,48.865,109.091,30.683s28.409-21.592,40.909-11.364s18.182,28.409,35.227,22.728S456.5,63.637,488.318,62.5
	s59.09,12.501,82.954-2.272s23.864-14.773,23.864-14.773l1.136,14.773c0,0,29.545,7.954,40.909,7.954s21.591-9.091,21.591-9.091
	l15.909,10.228l9.091-15.909c0,0-1.136,5.682,10.228,9.091s42.045-10.228,42.045-10.228s39.772,22.727,59.091,18.182
	S900.818,38.637,906.5,34.091s63.637,27.272,88.637,25s113.636,13.636,136.363,2.272s14.772-15.909,14.772-15.909
	s12.501,18.183,20.455,18.183s105.681-11.364,126.136-36.364s122.728,79.546,142.046,45.455s60.227-18.183,82.954-29.546
	s22.728-11.363,22.728-11.363s-68.182,59.09,60.228,42.045s139.772-35.227,139.772-35.227s44.317,39.772,70.454,32.954
	s130.683-10.228,130.683-10.228l10.227,232.955L-11.682,263.637L-26.455,55.682z"/>
</svg>
