<?xml version="1.0" encoding="UTF-8"?>
<!DOCTYPE svg  PUBLIC '-//W3C//DTD SVG 1.1//EN'  'http://www.w3.org/Graphics/SVG/1.1/DTD/svg11.dtd'>
<svg width="826.24px" height="19.791px" enable-background="new 0 0 826.235 19.791" version="1.1" viewBox="0 0 826.235 19.791" xml:space="preserve" xmlns="http://www.w3.org/2000/svg">
<path d="m9.779 0s2.055 2.019-2.111 4.03c-4.168 2.012 43.388 2.518 43.388 2.518l-38.723 0.924s-1.306 0.518-2.695 2.362 23.695 2.11 23.695 2.11h-25s5.555-0.684 1.389 0.824c-4.166 1.51-9.722 2.928-9.722 2.928l63.889 0.08s-62.5 0.333-61.111 0.668 0 3.346 0 3.346 377.78-0.846 433.33-0.846 186.22 0 186.22 0h201s-7.778-6.472 0-6.94c7.778-0.47-55.277-0.379-55.277-0.379s54.167-0.362 56.944-0.865c2.777-0.502 0-6.815 0-6.815h-45.667l42-0.746v-3.082l-811.55-0.117z" fill="#99916D"/>
<line x1="77.428" x2="307.24" y1="2.964" y2="2.401" fill="none"/>
<line x1="474.49" x2="704.18" y1="6.484" y2="7.21" fill="none"/>
<line x1="142.53" x2="372.14" y1="15.68" y2="16.482" fill="none"/>
<line x1="478.39" x2="643.16" y1="13.71" y2="13.9" fill="none"/>
<line x1="145.34" x2="243.86" y1="8.61" y2="8.583" fill="none"/>
<path d="m3 18.525s657.33-1.609 732.67-1.368c75.333 0.242 87.333 0.403 87.333 0.403l0.333 0.875s-357-0.03-380.33 0.01-433.33 1.006-438 1.046c-4.667 0.041-2-0.966-2-0.966z" fill="#99916D"/>
<path d="m779.14 4.017s43.531-0.442 45.031-0.801" fill="#704833"/>
<path d="m783.54 11.413s34.202-0.279 39.745-0.565" fill="#704833"/>
<path d="m41 18.888s96.667 0 110.67-0.081" fill="#1E1410"/>
<path d="m599 17.62s96.668 0 110.67-0.08" fill="#1E1410"/>
<path d="m349 18.103s96.667 0 110.67-0.081" fill="#1E1410"/>
</svg>
