<?xml version="1.0" encoding="UTF-8"?>
<!DOCTYPE svg  PUBLIC '-//W3C//DTD SVG 1.1//EN'  'http://www.w3.org/Graphics/SVG/1.1/DTD/svg11.dtd'>
<svg width="829.65px" height="326.52px" enable-background="new 0 0 829.654 326.516" version="1.1" viewBox="0 0 829.654 326.516" xml:space="preserve" xmlns="http://www.w3.org/2000/svg">
<path d="m11.54 1.003s1.805 33.444-2.361 66.778c-4.167 33.333 43.263 41.722 43.263 41.722l-38.785 15.305s-1.337 9.098-2.726 39.653 23.664 35.486 23.664 35.486h-25s5.555-11.861 1.389 13.139-9.722 48.236-9.722 48.236l63.889 1.201s-62.5 5.462-61.111 11.018 0 51.926 0 51.926 377.78-17.52 433.33-17.52 186.22 0 186.22 0h201s-7.778-103.75 0-111.53-55.277-4.542-55.277-4.542 54.167-3.826 56.944-12.16 0-110.77 0-110.77h-45.667l43-14.944v-51.056l-812.06-1.944z" fill="#9E643C" stroke="#442E1F" stroke-miterlimit="10" stroke-width="2"/>
<line x1="78.689" x2="308.5" y1="50.109" y2="40.785" fill="none" stroke="#603813" stroke-miterlimit="10" stroke-width="3"/>
<line x1="475.75" x2="705.44" y1="108.43" y2="120.46" fill="none" stroke="#603813" stroke-miterlimit="10" stroke-width="3"/>
<line x1="143.79" x2="373.4" y1="260.79" y2="274.1" fill="none" stroke="#603813" stroke-miterlimit="10" stroke-width="3"/>
<line x1="479.66" x2="644.42" y1="228.16" y2="231.32" fill="none" stroke="#874F21" stroke-miterlimit="10" stroke-width="2.5394"/>
<line x1="146.6" x2="245.12" y1="143.67" y2="143.2" fill="none" stroke="#874F21" stroke-miterlimit="10" stroke-width="1.9634"/>
<path d="m4.262 307.95s657.33-26.667 732.67-22.667 87.333 6.667 87.333 6.667l0.333 14.5s-357-0.499-380.33 0.167-433.33 16.666-438 17.333-2-16-2-16z" fill="#563926" stroke="#442E1F" stroke-miterlimit="10"/>
<path d="m824.6 195.67s1.334 81.944 2.667 91.944-1 16-1 16l-1.667 2.833s-6.392-102.56-1-109.38c4.25-5.375 1-1.402 1-1.402z" fill="#704833" stroke="#442E1F" stroke-miterlimit="10"/>
<path d="m826.26 67.447s1.745 84.128 2.673 94.891c0.93 10.763-1.645 17.103-1.645 17.103l-1.945 0.756s4.849-99.844 2.675-108.72c-1.883-7.692-1.758-4.026-1.758-4.026z" fill="#704833" stroke="#442E1F" stroke-miterlimit="10" stroke-width="1.0354"/>
<path d="m824.6 53.447s-4.267-47.436 1.125-51" fill="#704833" stroke="#442E1F" stroke-miterlimit="10" stroke-width=".723"/>
<path d="m780.4 67.563s43.531-7.325 45.031-13.282" fill="#704833" stroke="#442E1F" stroke-miterlimit="10" stroke-width=".6572"/>
<path d="m784.8 190.1s34.202-4.631 39.745-9.367" fill="#704833" stroke="#442E1F" stroke-miterlimit="10" stroke-width=".6741"/>
<path d="m42.261 313.95s96.667 0 110.67-1.333" fill="#1E1410" stroke="#442E1F" stroke-miterlimit="10" stroke-width="3"/>
<path d="m600.26 292.95s96.668 0 110.67-1.333" fill="#1E1410" stroke="#442E1F" stroke-miterlimit="10" stroke-width="3"/>
<path d="m350.26 300.95s96.667 0 110.67-1.333" fill="#1E1410" stroke="#442E1F" stroke-miterlimit="10" stroke-width="3"/>
</svg>
